<?xml version="1.0" encoding="UTF-8"?><svg id="_ÎÓÈ_1" xmlns="http://www.w3.org/2000/svg" viewBox="0 0 1368.3281 1934.2433"><defs><style>.cls-1{fill:#baf27e;}.cls-2{fill:#0c0c0f;}.cls-3{fill:#32cf90;}</style></defs><path class="cls-3" d="M709.9433,816.3245c-.0518,1.9409-.547,3.8703-.888,5.8089-.7691-.8684-1.8261-1.6756-2.0365-2.6629-3.156-14.8071-3.8229-29.6665-.8023-44.6123,3.8057-18.8314,12.1828-35.5741,23.6369-50.7581,15.7407-20.8656,31.9898-41.3472,47.7761-62.1791,11.153-14.7178,22.057-29.6312,32.7874-44.6606,13.6254-19.0832,24.7473-39.5812,33.2742-61.4376,6.6099-16.9428,12.1437-34.1767,12.9984-52.5607,.0574-1.2322,.5093-2.4457,1.3359-6.2096,1.2027,4.2861,2.0173,6.1721,2.2315,8.1239,1.1012,10.0376,2.602,20.0733,2.9467,30.1442,1.083,31.6568-5.1864,61.739-21.0161,89.4376-10.5875,18.5259-23.1396,35.6813-37.8798,51.1323-12.2717,12.8637-25.1102,25.1922-37.229,38.1944-11.3986,12.2293-22.8432,24.5179-33.0812,37.7017-14.6291,18.8381-23.4103,40.2676-24.0544,64.5378Z"/><path class="cls-1" d="M710.0135,824.0097c.1024,.2181-.1518,.6037-.244,.913-.4184-.2848-1.1833-.5712-1.1818-.8536,.0025-.4686,.2873-.9356,.5273-1.4027,.3224,.437,.6725,.8611,.8985,1.3433Z"/><path class="cls-1" d="M1014.1553,505.5198c2.6085-1.3747,3.8715-2.0407,5.0579-2.6656-.3313,1.7828-1.3851,2.7545-5.0579,2.6656Z"/><path class="cls-3" d="M764.5203,610.2026c11.5082-10.1606,23.2687-20.0584,34.3968-30.6213,14.5928-13.8523,26.0302-30.1123,33.1754-49.0078,3.8167-10.0933,6.5524-20.5955,9.7609-30.9181,.3104-.9982,.3813-2.0894,.8049-3.0289,.4141-.9183,.0177-2.6759,2.2405-2.531,.6282,16.526-3.2908,32.0621-8.5108,47.2424-8.3267,24.2153-19.9123,46.8743-34.7892,67.7301-11.7463,16.4668-23.7906,32.7279-35.9973,48.8569-15.1569,20.0268-30.8962,39.6169-45.8632,59.7819-13.0357,17.5628-22.9716,36.9061-25.9626,58.7945-3.6197,26.4907-.6494,52.2335,12.6597,76.0841,.4906,.879,.728,1.8991,1.4831,3.9268-8.685-3.2924-13.7153-6.9019-19.8575-14.7045-10.7292-13.6296-18.4535-28.7629-21.8224-45.9028-5.7697-29.3603-2.5432-57.5715,10.5602-84.6412,12.467-25.7552,29.1489-48.3787,50.0592-67.8053,12.2658-11.3955,25.1071-22.171,37.6624-33.2559Z"/><g><path class="cls-1" d="M737.7194,482.8754c5.8189-1.5117,10.7774-4.8841,14.9503-9.2836,6.4795-6.8318,9.1739-14.674,6.4638-23.9992-.7495-2.5788-1.3212-5.209-1.9963-7.9023,1.3108-.1344,2.0098-.3602,2.6498-.2491,26.0829,4.5267,50.6339-.1666,74.0822-12.0203,7.0236-3.5505,12.8927-8.2496,17.2929-14.7826,1.3634-2.0243,2.8409-3.9717,4.2462-5.9682,2.5326-3.5979,5.7002-5.8821,10.3458-6.181,5.8728-.3782,10.4534-3.6294,14.5073-7.6374,1.7343-1.7149,3.3692-3.5378,4.965-5.3844,11.0546-12.7913,24.8535-22.3969,38.0274-32.7181,3.9969-3.1316,8.698-4.047,13.8007-3.8724,6.4467,.2206,12.2432,2.591,18.1754,4.6274,15.2008,5.2182,24.1781,15.8618,27.6957,31.4151,1.4844,6.5636,1.5968,13.1565,.8521,19.768-1.1122,9.8723-5.5153,17.8825-13.843,23.5892-4.6063,3.1567-9.2197,6.3185-13.6534,9.7086-11.4769,8.7761-19.4808,19.7582-22.1286,34.3501-.9908,5.4595-2.8967,10.773-4.6498,16.0656-.8679,2.62-2.1482,5.1531-3.5662,7.532-4.7932,8.0404-11.6675,11.6554-21.1485,9.7325-8.2732-1.6779-16.5724-2.2962-24.8828-.0196-1.8787,.5146-3.6431,2.1293-6.4029,.6268-.5768-2.9827-1.2484-6.3506-1.8768-9.7268-3.1467-16.9042-8.4143-33.1284-15.7462-48.6697-1.4822-3.1416-3.222-6.2052-5.2048-9.053-1.6195-2.3266-3.9331-4.1013-7.083-3.5797-3.4293,.5675-5.7854,2.715-6.5096,6.027-.8142,3.7236-1.3441,7.5556-1.528,11.3631-1.1535,23.8968-5.5627,47.1021-14.4053,69.3903-3.6131,9.1066-7.9208,17.8343-14.3192,25.5981-11.5903,2.9673-21.2638,.0142-28.9929-9.2233-1.5677-1.8737-3.2251-3.6746-4.7449-5.5854-5.8139-7.309-13.5872-10.6395-22.6961-11.3814-4.165-.3394-8.3335-.7041-12.475-1.2497-9.5316-1.2556-16.9765-5.9334-22.4603-13.8475-1.567-2.2614-3.4725-4.2884-5.328-6.551-.1379-5.12-.2771-10.2778-.4267-15.8351,2.5059-.2567,4.5537-.3176,6.5406-.6966,7.1771-1.3696,14.4124-2.5421,21.4731-4.3766Z"/><path class="cls-1" d="M948.6146,338.8787c-3.0216,1.4245-6.737,2.2557-10.0428,2.0315-9.2182-.6257-17.1543,2.0679-24.3594,7.5657-1.2899,.9841-2.6354,2.4205-4.7752,.3508,4.5272-19.1201,6.8255-38.8317,7.9461-58.6655,1.1206-19.8389,.3795-39.6372-2.7946-57.7199,3.2793-6.2642,6.0904-11.0542,8.3635-16.0871,6.2622-13.8674,8.6579-28.5817,9.1407-43.696,.3781-11.8293,.9067-23.6541,1.4336-35.4781,.0745-1.6686,.1725-3.5671,2.8771-3.7372,.8138,1.3829,1.5138,3.0084,2.5893,4.3276,5.2243,6.4064,10.9003,6.7686,16.9267,.9832,1.9939-1.9142,3.5152-4.3107,5.3682-6.3837,1.7976-2.0108,3.7436-3.8891,5.397-5.5915,4.8948,.681,7.2871,3.8876,9.9658,6.489,12.5728,12.2092,20.4086,27.2467,25.4682,43.8132,5.7492,18.8261,7.7488,38.1969,7.4214,57.7971-.1039,6.2346-.9373,12.4952-1.9061,18.67-3.2588,20.7631-12.6509,39.0788-24.0611,56.2717-8.6218,12.9906-20.8431,22.405-34.9584,29.0592Z"/><path class="cls-1" d="M838.3588,209.7622c-2.6762-1.5676-5.1829-3.5386-7.452-5.6613-4.0629-3.8003-7.4532-8.4703-11.9319-11.6323-4.4526-3.1434-9.8996-4.8787-15.7668-7.6334-.9332-6.2497-.6429-12.1143,.0519-18.0188,.857-7.2824,4.3226-13.2186,9.233-18.3556,7.2161-7.5487,14.3708-7.8261,21.8688-.726,2.753,2.6068,5.0573,5.7602,7.2104,8.9079,2.3568,3.4458,4.4283,7.1056,6.4036,10.7905,6.7924,12.6719,16.4262,22.559,29.2622,28.9794,9.5933,4.7983,15.6818,12.4629,20.1356,21.8315,4.0992,8.6227,5.9681,17.8087,6.9865,27.2147,3.8726,35.7668,.1476,70.9443-7.743,105.8822-2.175,9.63-6.2234,17.6253-14.1561,23.5618-1.2907,.9659-2.2536,2.7368-3.6624,1.7393,1.1655-13.9219,2.7823-27.4241,3.3354-40.9698,1.4678-35.9561-7.1321-69.8183-22.4674-102.1257-4.7442-9.9949-11.6333-18.1172-21.3077-23.7844Z"/><path class="cls-1" d="M550.8441,445.5953c13.4706-11.5864,28.4371-20.1484,46.3778-22.575,5.1824-.701,10.3888-1.2645,15.5394-2.1498,5.524-.9491,9.5984,.3347,14.0117,4.4602,16.8769,15.7761,36.1147,27.1127,59.7616,29.8442,18.4116,2.1267,34.6322-1.6061,48.0709-14.9381,.947-.9397,2.1009-1.6711,3.417-2.7012,3.3435,2.6017,5.2067,5.9616,7.0316,9.2047,4.7334,8.4138,5.5299,15.196-6.3837,22.7509-1.7421,1.1048-3.7644,1.8478-5.7459,2.4798-8.0377,2.5636-16.2554,4.1152-24.723,3.2551-6.9354-.7046-13.8245-1.8736-20.7606-2.5687-25.2886-2.5347-46.1483,4.916-60.1847,27.2338-3.5245,5.604-6.6701,11.4454-10.0878,17.1188-2.1563,3.5794-4.3461,7.1578-6.8081,10.5265-1.4157,1.9369-3.2124,3.7293-5.1754,5.1041-4.1788,2.926-8.3792,1.3582-9.6737-3.5957-.8782-3.3616-1.0137-6.922-1.9436-10.2648-1.3912-5.0025-2.585-10.2066-4.9557-14.7555-3.532-6.7778-9.4785-10.0142-17.4116-8.5698-1.6908,.3077-3.409,.4645-5.2882,.7139-3.3899-3.086-5.7074-5.8128-8.592-7.6482-2.885-1.8358-6.3559-2.7371-9.5311-4.1365-1.2669-.5583-2.4878-1.2683-3.6301-2.0538-7.3479-5.0531-9.1669-11.7182-5.6051-20.021,2.8037-6.535,6.9271-12.1009,12.2904-16.7139Z"/><path class="cls-1" d="M724.4477,433.431c-9.0598,8.1085-19.7508,11.1565-31.8513,10.3378-22.3001-1.5088-40.6338-11.5099-56.8564-26.0693-5.8256-5.2286-10.2316-11.5834-11.1623-19.5918-2.0985-18.0613-3.0341-36.141,1.162-54.0707,4.4207-18.8887,12.876-36.0017,23.0679-52.3759,6.2578-10.0535,12.269-20.2625,18.2684-30.4739,4.6183-7.8609,7.7872-16.2873,9.9504-25.1786,3.0855-12.6823,3.4577-25.5057,3.0032-38.4333-.208-5.9173-.4848-11.8446-.3536-17.7589,.173-7.8029,3.2817-9.7991,10.772-7.2224,7.6534,2.6329,13.1121,7.7964,16.6009,15.0098,1.2078,2.4974,2.0318,5.1888,2.9291,7.8262,1.9898,5.8473,5.4468,10.672,10.8636,13.5792,10.3563,5.5582,15.4833,14.6539,18.307,25.5104,2.8998,11.1498,5.0183,22.4234,5.9605,33.9294,1.7645,21.5536,2.4901,43.1497,1.9261,64.7489-.5371,20.5585-1.7185,41.1077-5.8446,61.4257-2.6932,8.6418-5.3416,17.2977-8.0963,25.9197-1.6315,5.1061-4.7101,9.3649-8.6467,12.8876Z"/><path class="cls-1" d="M612.188,400.158c-13.5067-8.8111-21.5904-19.6651-27.5449-32.0251-8.9614-18.6019-15.5785-38.0669-19.1005-58.4761-.7677-4.4497-1.1669-8.995-1.3348-13.5111-.8888-23.8872,5.4135-45.4799,20.7651-64.1386,1.7687-2.1499,3.3153-4.4829,4.9555-6.7378,5.5224-7.5923,8.1083-16.0859,8.0602-25.4709-.023-4.5275,.1376-9.0723,.5265-13.5826,1.4135-16.4007,10.2736-22.015,25.8764-16.3009,16.0928,5.8935,29.4786,15.597,40.1717,29.0388,2.4932,3.1343,3.8415,6.3437,3.7371,10.4866-.4101,16.2938-3.4821,31.8945-11.7004,46.136-6.0952,10.5617-12.5074,20.9424-18.8617,31.3529-7.8311,12.8296-14.7821,26.0727-19.5391,40.3863-6.5918,19.8349-8.4152,40.1805-6.6358,60.9293,.29,3.3809,.3625,6.7804,.6246,11.9132Z"/><path class="cls-1" d="M733.8062,106.225c6.017,4.9982,12.8427,6.7902,20.5008,5.7173,3.4517-.4837,6.8932-1.0375,10.3414-1.5453,9.5306-1.403,17.1642,2.2339,23.1502,9.3238,4.9981,5.9201,8.384,12.8282,10.4625,20.3199,.8651,3.1179,.7485,5.9912-1.1571,8.965-3.4202,5.3375-5.441,11.2724-6.0814,17.6492-.1197,1.1916-.1276,2.927-2.5133,2.6416-1.1157-2.3577-2.1783-4.896-3.48-7.3047-6.5476-12.1157-16.6224-16.731-29.7404-12.8819-5.2636,1.5444-10.4481,4.0461-15.0245,7.0826-6.7446,4.4755-11.7078,10.8795-15.8983,17.815-1.5766,2.6095-3.1892,5.1972-5.0509,8.227-1.0313-1.2296-2.1885-1.9969-2.1242-2.6426,.2384-2.3981,.688-4.8153,1.4001-7.1196,3.9847-12.8923,4.4806-26.0376,3.081-39.3412-.1823-1.7343-.3919-3.4674-.5142-5.2062-.3919-5.5625-.8928-11.1231-1.0688-16.6933-.1211-3.8264,.1565-7.6959,5.1091-11.1762,3.0476,2.1656,5.9789,3.9857,8.608,6.1696Z"/><path class="cls-1" d="M462.1665,262.0488c2.3681-.359,4.921-.4503,7.243,.0375,4.4221,.9291,8.8552,2.0514,13.079,3.638,18.5677,6.9739,34.738,17.6514,48.6313,31.8368,6.5891,6.7276,13.1743,13.5041,20.2824,19.6559,2.8835,2.4953,4.2333,5.1401,5.3092,8.5317,3.7958,11.9669,7.4642,23.998,11.9022,35.7319,6.5109,17.2134,16.0986,32.4838,30.58,44.2938,1.005,.8193,1.7557,1.9499,3.6781,4.1308-13.6984,2.3256-25.6175,4.8994-36.6694,10.4356-1.2075,.605-2.6537,.834-4.0186,1.0076-11.8073,1.5027-23.6526,1.621-35.4955,.5998-2.7527-.2375-5.5892-.818-8.136-1.8571-5.5791-2.2761-10.6887-5.2534-12.1791-12.4027,1.6208-1.5242,3.2557-3.2875,5.1216-4.7586,2.187-1.7241,4.6645-3.0783,6.8592-4.7939,10.719-8.3786,6.0382-18.3822-2.2399-22.7291-2.7499-1.444-5.8561-2.2316-8.835-3.2117-2.6491-.8718-5.3661-1.5367-8.0202-2.3955-5.9189-1.9148-10.2129-5.9316-13.5766-10.9728-3.3886-5.0786-3.1963-8.6388,.5488-13.3853,1.2925-1.6381,2.8999-3.0249,4.234-4.6338,7.1805-8.6594,8.251-17.4884,2.292-27.0141-3.2882-5.2566-7.619-9.9404-11.925-14.4583-4.3226-4.5355-9.3144-8.4254-13.7873-12.8275-2.719-2.6759-5.195-5.6531-7.427-8.7493-1.396-1.9362-2.4262-4.259-3.1105-6.5597-1.45-4.8751,.7326-8.4034,5.6593-9.1499Z"/><path class="cls-1" d="M908.7249,213.4961c-1.0507-1.7753-2.3197-3.8175-3.4898-5.915-5.0548-9.0608-11.8923-16.3416-21.2489-21.0095-11.995-5.9839-20.6906-15.1565-26.7984-26.986-1.7566-3.4029-3.6848-6.7583-5.908-9.8684-2.625-3.6724-5.3226-7.4053-8.5746-10.4952-8.531-8.1058-18.3082-11.2142-29.668-6.0382-.9363,.4264-1.9851,.6053-3.3661,1.0127-.7772-1.507-1.531-3.0186-2.329-4.5066-2.4696-4.6053-4.5653-9.4702-7.509-13.7512-9.0751-13.1989-21.5629-19.3686-37.7423-17.1791-2.4182,.3271-4.8443,.6312-7.2367,1.0993-5.4861,1.0732-10.3787,.0323-14.6061-3.7539-1.0373-.9289-2.1476-1.7825-3.2682-2.6112-12.1236-8.9654-22.8368-5.7329-27.7245,8.3737-.3405,.9824-.438,2.0469-.744,3.044-.4523,1.4737-.9901,2.9212-1.4193,4.1696-4.814-2.124-8.7811-4.6015-13.0911-5.5989-5.881-1.3611-11.1016-3.2217-15.9116-7.1713-6.0221-4.9451-13.036-4.7521-19.4463-.3863-3.1067,2.1157-6.1842,4.7747-8.2025,7.8837-4.1568,6.4038-7.9017,13.1252-11.2431,19.9947-3.6837,7.5739-7.706,14.7721-13.5494,20.9659-3.0161,3.1967-5.2642,7.1176-8.0524,10.978-1.1408,.0318-2.5192,.0496-3.8957,.1113-13.1301,.5874-21.7724,7.1027-24.9204,19.71-1.5076,6.0366-2.5506,12.4023-2.4198,18.5897,.2575,12.1901-3.7056,22.274-11.5055,31.5687-12.8995,15.3727-19.8267,33.4656-21.8553,53.3893-.6632,6.5153-.8547,13.0784-1.394,21.7457-3.0892-2.8274-4.695-4.1068-6.0782-5.5934-10.9844-11.807-23.1512-22.1516-36.9652-30.553-8.2364-5.0091-9.5542-13.2855-9.2601-21.8872,.2091-6.1094,3.4542-10.4766,9.4296-12.5182,1.98-.6764,4.001-1.2563,5.926-2.0646,9.2485-3.8838,12.3781-11.0565,8.1604-20.3014-1.9901-4.3621-5.2219-8.1849-8.0788-12.1157-2.4557-3.3789-5.4979-6.3625-7.711-9.8795-3.8564-6.1283-2.8231-10.2668,3.4-13.9324,3.5851-2.1116,7.6406-3.4121,11.2946-5.4227,3.9304-2.1627,8.1434-4.197,11.3386-7.2297,6.7325-6.3895,7.9706-14.6457,5.0501-23.1676-1.9042-5.5564-4.9275-10.7311-7.4757-16.0641-1.9493-4.0797-4.4179-7.9827-5.8141-12.2402-2.9947-9.13,.1806-16.6064,8.4978-21.1645,2.1293-1.1671,4.4141-2.0867,6.6976-2.9305,18.9005-6.9848,36.3494-2.215,53.2088,6.7658,5.8387,3.1101,10.0083,7.3557,9.9129,14.7411-.0394,3.0583,1.0332,6.1789,1.908,9.1816,.4714,1.6184,1.4146,3.1879,2.4662,4.5273,1.403,1.7873,3.4083,2.3491,5.6169,1.5515,2.1016-.759,3.5865-2.1801,3.8838-4.4699,.1306-1.0045-.062-2.0685-.2146-3.0896-1.9524-13.0729-4.0583-26.1248-5.8248-39.2227-.6953-5.1563-.7088-10.4107-.9157-15.6252-.349-8.7949,8.0115-14.8068,16.1332-13.6892,2.7521,.3787,5.4701,1.0631,8.1724,1.7334,14.2892,3.545,26.16-.1926,35.5238-11.6544,2.4253-2.9685,4.7456-6.0541,7.4314-8.7723,7.4638-7.5547,15.4254-8.6721,24.7307-3.7109,1.2286,.6552,2.3735,1.4652,3.5759,2.1714,11.3907,6.6901,19.5148,6.1464,29.6453-2.2012,2.681-2.2091,5.0614-4.7909,7.5165-7.2645,2.4682-2.4864,5.4092-3.31,8.5967-2.0298,2.8796,1.1565,5.7711,2.5131,8.2822,4.3067,4.2493,3.0348,8.0413,6.715,12.3214,9.7001,5.4125,3.7751,10.8068,7.816,16.7618,10.5281,16.7584,7.6323,32.568,5.9706,46.6928-6.512,1.5683-1.3857,3.0984-2.8167,4.7031-4.1588,7.9041-6.6116,12.0954-6.7433,20.324-.3,6.9244,5.4222,12.7058,11.9032,17.2318,19.489,5.4001,9.0511,9.5069,18.6634,12.1056,28.8516,2.1532,8.4402,3.7644,17.0169,5.7446,25.5031,2.8512,12.2194,5.586,24.4736,8.8083,36.5966,2.7092,10.1931,6.6976,19.8347,15.5078,25.8576,1.1486,18.6027-1.4316,34.2294-7.8994,48.6569-.5365,1.197-.8513,2.711-3.2427,2.238Z"/><path class="cls-1" d="M757.2336,270.678c-1.0061-14.3123-3.4396-28.3629-7.4494-42.1341-3.4256-11.7664-9.5473-21.6161-20.2502-28.1825-.8591-.527-1.4848-1.4338-2.7961-2.7382,3.6541-10.9249,8.4566-20.4325,16.2935-28.2542,4.05-4.0426,8.7352-6.9122,14.1835-8.5365,9.0363-2.6934,13.8707-.6398,17.7814,7.8885,1.5902,3.4674,2.5941,7.2073,3.8074,10.8424,2.8741,8.6105,8.8766,13.9648,17.3653,16.7166,1.6548,.5365,3.358,.9556,5.0662,1.2907,6.7697,1.3276,12.2455,4.6232,16.6467,10.0172,3.7436,4.5874,7.8538,8.863,13.2062,11.7381,8.6437,4.6426,14.441,11.8755,18.4989,20.6682,12.8643,27.8744,20.6735,56.9335,20.8662,87.8267,.1313,21.0491-2.2805,41.7156-8.6864,62.162-8.8962,2.5608-14.623,8.9675-19.3976,16.4751-.5598,.8804-1.2645,1.6674-1.8566,2.5287-2.6289,3.8238-6.1069,6.6598-10.1831,8.806-17.2899,9.1037-35.5691,14.2306-55.2425,13.3947-10.1763-.4324-19.9052-2.7315-28.7298-7.4321-.6401-4.6733,1.0905-8.2367,2.2086-11.8223,4.8072-15.4144,7.1087-31.2864,8.5727-47.266,2.8683-31.3119,2.2982-62.6546,.0952-93.9892Z"/><path class="cls-1" d="M666.2564,181.8963c-6.0763-4.6172-11.36-9.1538-17.158-12.8933-5.9884-3.8624-12.4768-6.9496-18.6788-10.3389,.4883-1.1718,.5909-1.9603,1.0365-2.4071,9.7723-9.8012,16.2507-21.6151,21.6327-34.2327,1.8852-4.4197,4.9787-8.3659,7.7966-12.3322,2.0613-2.9018,4.7608-5.1183,9.2652-4.5531,5.6283,5.4545,12.5409,9.132,20.8644,9.9943,3.6026,.3733,6.595,2.3602,8.7316,5.2717,2.8842,3.9308,5.6825,7.9409,8.231,12.093,1.0542,1.7174,1.7055,3.8483,1.956,5.8639,1.1705,9.4167,.8785,18.7224-3.1958,28.8309-3.1333-1.6156-5.5246-3.0362-8.0631-4.1078-2.8729-1.2128-5.8071-2.4509-8.8385-3.0881-11.3612-2.3886-19.0594,2.7517-21.4804,14.0367-.5352,2.4939-.1059,5.3387-2.0994,7.8627Z"/></g><g><path class="cls-3" d="M1052.9669,461.6809c32.1774-39.3565,56.8249-82.5423,67.7394-132.8297,4.9063-22.6047,8.3079-45.243,6.3619-68.4276-.9616-11.4527-2.0437-22.8953-3.0071-34.3478-.1251-1.4848,.1338-3.002,.2769-5.6537,5.6286,10.0279,10.7273,23.4097,13.1256,35.3345,5.6065,27.8745,7.632,55.8804,2.8612,84.1464-2.1589,12.7908-5.3689,25.2647-10.6348,37.0982-11.5853,26.0323-27.0144,49.5814-47.2855,69.6756-18.5683,18.4064-37.6604,36.2824-57.8829,52.8944-1.4718,1.2091-3.3545,1.9174-5.069,2.8301,.1893-2.9703,2.6561-4.5269,4.3438-6.5154,9.697-11.4247,19.688-22.6066,29.1705-34.2049Z"/><path class="cls-3" d="M1235.0004,430.799c-1.9857,1.9549-4.1175,3.7766-6.2925,5.5219-33.028,26.504-70.259,45.3208-109.803,59.8708-1.4497,.5336-3.1176,1.8345-5.3973-.2233,3.1442-2.2399,6.0942-4.4515,9.1518-6.5028,34.9654-23.4581,66.5528-50.771,94.1544-82.6098,15.5748-17.9655,29.8236-36.9442,41.1665-57.8747,20.2001-37.2737,36.4083-76.1331,45.1052-117.8416,.4787-2.2961,1.2874-4.523,1.9425-6.7822,5.2194,11.9593,5.8181,24.1439,6.5526,36.2622,1.6075,26.5207-2.4348,52.2822-12.3766,76.8888-14.4637,35.7991-36.8107,66.3201-64.2036,93.2905Z"/><path class="cls-3" d="M1125.7512,554.0387c9.4091-.0476,18.8161-.4382,28.225-.6249,31.3192-.6207,61.6947-6.1903,90.9783-17.4071,10.744-4.1153,21.4048-8.4469,32.1508-12.5567,1.2785-.4891,2.8433-2.2175,4.3532-.1262-.5632,.525-1.0158,1.0895-1.5944,1.4555-1.1742,.7438-2.4097,1.3928-3.6319,2.0592-48.371,26.377-99.9606,40.3863-155.1898,40.9018-20.6095,.1924-41.0935-1.6279-61.6294-2.65-4.7506-.2364-9.4894-.722-14.2333-1.0929-.0312-.503-.0626-1.0061-.0936-1.5091,2.2719-.5213,4.5235-1.1651,6.8185-1.5453,24.4507-4.0487,49.0222-6.7788,73.8466-6.9043Z"/><path class="cls-3" d="M1102.6145,486.8c2.5898-2.2044,3.998-3.5488,5.549-4.7009,21.0667-15.6491,40.1242-33.4742,57.6371-52.9916,42.2833-47.1227,79.7866-97.6358,109.3385-153.8101,1.2005-2.2819,2.8363-4.3347,5.1532-7.8267-11.6688,42.5122-40.5835,94.9705-71.5418,130.6137-30.0331,34.5786-81.9083,78.2199-106.136,88.7156Z"/><path class="cls-3" d="M1094.324,579.1516c31.4324,1.307,62.6633-.1474,93.5629-6.6907,38.9571-8.2496,74.9893-23.6724,109.2285-43.6862,17.5368-10.2506,34.0592-21.7749,48.1204-36.5884,1.2195-1.285,2.1121-3.5422,4.6619-3.0035,1.7715,5.0281-1.0618,8.9581-2.9961,12.899-6.1716,12.5743-13.9916,24.0619-23.393,34.4865-23.6155,26.1858-51.603,45.6348-85.6378,55.7856-7.0092,2.0904-14.0745,4.0094-21.1619,5.8207-38.2473,9.7759-76.0297,7.0496-113.4029-4.564-12.9759-4.0323-25.822-8.4817-38.7137-12.7814-1.1475-.3826-2.1932-1.0696-5.2351-2.5884,3.3597-.5489,4.5731-.9738,5.7575-.905,9.7388,.5649,19.4649,1.4108,29.2093,1.816Z"/><path class="cls-3" d="M984.4659,507.783c6.7512-19.4177,13.2827-38.9396,20.8988-58.022,12.1795-30.5163,27.3961-59.4864,46.9607-86.0296,5.997-8.136,11.8531-16.3762,17.8902-24.4819,17.0318-22.8681,29.5116-48.0342,38.2441-75.1263,1.267-3.9313,2.8711-7.7541,4.4827-12.065,.884,1.2434,1.5132,1.7426,1.6039,2.3256,.321,2.0616,.4998,4.1488,.6573,6.2317,2.6845,35.5202-5.1547,69.3324-17.0151,102.4022-8.7679,24.4466-21.7822,46.6673-36.7517,67.8125-15.5442,21.9567-33.1457,42.2103-51.1576,62.1172-9.3609,10.3455-18.7287,20.654-26.7853,32.084-.757,1.0738-1.3277,3.3895-4.1662,1.766,1.6717-6.2838,2.9769-12.7979,5.1382-19.0144Z"/></g><path class="cls-2" d="M147.2142,293.9346c-1.2788,12.4557,7.9504,19.4435,17.7009,17.2822,4.4192-.9796,8.8779-1.8377,13.2215-3.0885,8.7158-2.5101,17.3357-5.3527,26.0475-7.8762,14.4894-4.197,29.3451-6.1919,44.3855-6.7197,21.6842-.761,42.1368,4.294,61.7931,13.0283,.4717,1.7444,.8518,3.0593,1.1833,4.3863,2.6095,10.4438,8.9474,18.012,18.2116,23.1625,4.8715,2.7084,9.9793,4.9889,14.9451,7.5315,11.0621,5.6641,20.6449,13.0528,27.0913,23.9182,1.7427,2.9365,3.0751,6.1164,4.5914,9.1759-3.5576,2.3094-4.9689-.4965-6.6859-1.7155-23.5856-16.7444-49.9707-24.2662-78.718-24.1467-16.5019,.0686-31.6829,4.5198-45.4302,13.6874-3.7736,2.5164-7.4877,5.1265-11.1576,7.7921-12.1766,8.8448-24.9783,16.6025-38.6299,22.9941-11.824,5.5359-24.1158,9.1209-37.1492,10.1136-3.1285,.2383-6.2703,.4401-9.368,.9101-3.9112,.5935-6.1971,3.0422-6.731,6.945-.3299,2.4126-.5784,4.8647-.5435,7.2944,.3038,21.0409-2.4593,41.7675-6.3263,62.3782-3.603,19.2027-8.3168,38.2013-10.1109,57.7306-3.2744,35.6449-2.7208,71.0885,5.4573,106.1191,2.2989,9.8479,5.1994,19.554,7.7363,29.3482,11.2853,43.5682,22.458,87.166,33.8464,130.7072,3.9715,15.1845,8.2107,30.3085,12.7422,45.3352,9.2061,30.5278,25.34,57.3432,45.0617,82.1112,17.2825,21.7045,37.5303,40.2977,60.1859,56.2865,7.4038,5.2251,14.7068,10.6023,22.2501,15.6184,7.8634,5.2293,16.3728,9.2546,25.1898,12.674,6.4988,2.5208,12.852,5.4151,19.2788,8.1223,8.9961,3.7896,17.858,7.9496,27.5337,9.8627,.8674,.1714,1.6285,.881,3.2915,1.8243-1.951,1.305-3.1858,2.3929-4.6181,3.048-15.0298,6.8752-28.5189,16.144-41.3994,26.3891-5.1902,4.1277-10.3596,8.2998-15.7581,12.1432-19.6198,13.9675-35.1938,31.711-48.4484,51.6157-20.7071,31.0962-39.8339,63.1544-56.4445,96.6137-15.0416,30.2985-29.1434,61.0623-43.8409,91.5336-14.5593,30.1851-30.3908,59.6867-49.0163,87.5912-5.6061,8.3992-11.8352,16.3901-17.9499,24.4377-2.0596,2.7107-4.6488,5.0187-7.4351,7.977-2.3142-3.1262-4.0858-5.6785-6.0209-8.0999-3.9159-4.9-7.6588-9.9742-11.9379-14.5415-12.8309-13.6951-29.2764-18.4901-47.4388-17.8064-14.8972,.5609-25.5787,8.2543-32.2664,21.4784-1.4133,2.7947-2.5948,5.7345-3.6004,8.7031-4.1227,12.171-1.7547,23.0389,8.0932,31.3057,16.1189,13.5311,34.4879,19.5849,55.4775,13.8112,6.0235-1.6568,11.8203-4.1956,17.6302-6.5535,6.0943-2.4734,12.0794-5.2149,18.5926-8.0484,2.1964,3.0578,4.3666,5.727,6.1583,8.6298,13.2228,21.4257,28.2042,41.5621,43.893,61.2376,21.445,26.8948,45.5065,51.0267,73.386,71.2187,16.4171,11.8904,33.6587,22.4681,52.4279,30.3043,16.864,7.0408,34.2947,11.9576,52.7026,12.3582,6.2536,.1358,12.5246-.5144,18.7869-.8234,2.3736-.1171,4.7446-.284,7.4044-.4456,1.301,2.4029,2.3887,4.5559,3.606,6.6329,4.9362,8.4233,9.7334,16.9349,14.9044,25.2125,21.9191,35.0869,51.1774,63.4667,82.8735,89.4614,11.6779,9.5775,22.4803,19.9414,31.9441,31.5858,19.2677,23.7057,43.0253,41.6161,69.9022,55.6423,33.2374,17.3458,68.6223,27.0622,105.9773,30.2366,38.4039,3.2631,76.6533,2.7507,114.7882-2.9534,7.5842-1.1346,15.1595-2.4716,22.6235-4.2109,4.4037-1.0261,8.0057-.2051,11.9891,1.7115,14.4503,6.9522,28.8377,14.13,43.6867,20.1419,38.9641,15.7743,79.2072,27.0321,120.9253,32.8906,40.174,5.642,80.4889,8.3165,121.0395,6.5453,18.8459-.8231,37.5185-3.3037,56.0062-7.0698,12.3531-2.5162,24.3856-6.1053,35.7056-11.7371,19.5712-9.7369,35.5309-23.4209,45.448-43.2363,10.925-21.829,9.5156-43.2082-3.759-63.5959-7.6676-11.7758-17.3783-21.885-28.2695-30.7067-14.0915-11.4147-28.2747-22.7446-42.8515-33.5257-24.4412-18.0772-47.9368-37.3293-70.0258-58.1333-30.0755-28.3263-56.1166-60.0492-78.4825-94.9843-32.7694-51.1857-57.6551-105.9928-78.2406-162.939-10.6808-29.547-20.1928-59.4538-28.2333-89.8468-7.9925-30.2131-11.7014-60.924-12.1601-92.0896-.0718-4.8761,.1713-9.769,.5118-14.6369,.9081-12.9874,6.7294-24.0982,13.9676-34.4829,2.1299-3.0562,5.4885-5.3164,8.4707-7.7088,19.0868-15.314,37.0359-31.8358,53.7655-49.7113,29.8414-31.8862,52.8908-68.3075,72.0633-107.3332,15.4013-31.3488,28.8235-63.538,39.8935-96.6619,11.4224-34.1785,19.4736-69.162,24.3053-104.9044,3.6039-26.6564,6.1314-53.3852,6.3196-80.284,.0929-13.2552-.0045-26.4547,1.9419-39.6449,.7451-5.0488-.0032-10.4583-.8976-15.5584-.5805-3.3096-2.1809-6.6976-4.156-9.4547-4.8656-6.7921-12.7682-7.6938-19.1978-2.4074-2.1214,1.744-3.6088,4.2404-5.6195,6.1464-.8293,.7861-2.2737,.9237-4.3229,1.6849-.8675-5.4991,.3201-9.0041,1.841-12.6028,5.5861-13.2163,6.1284-27.0998,4.7751-41.134-.4421-4.5869-2.2651-8.7818-5.1881-12.4026-4.6825-5.8002-11.59-6.7865-17.5918-2.2083-2.741,2.0912-4.9879,4.8308-7.8519,7.665-16.0457,1.3513-23.5049,13.8243-31.4758,27.3521-.9317-2.7801-1.7876-4.4724-2.0414-6.2504-.8361-5.8606-.9557-11.8703-2.3061-17.597-1.1823-5.0128-3.0112-10.1167-5.6937-14.4799-5.1614-8.3946-12.5913-9.7635-20.3999-3.774-3.5224,2.7017-7.0176,4.1455-11.2714,4.7942-10.6961,1.6308-19.6753,6.8313-27.5921,14.0333-8.613,7.8354-15.3058,17.1449-20.9864,27.2399-9.2564,16.4497-16.6355,33.7822-24.0496,51.0984-1.9123,4.4659-3.8181,8.9344-6.5504,15.3286-.1791-4.2869-.6374-6.5959-.3115-8.7881,3.5524-23.8755,7.8498-47.5357,19.8238-69.0213,2.8806-5.1687,5.0419-10.733,7.7674-15.9944,10.0858-19.4685,24.2121-35.7345,40.2262-50.5008,2.7276-2.515,5.6548-3.4694,9.443-3.4177,28.0999,.383,55.4951,4.1934,82.257,13.4137,20.0869,6.9205,40.096,14.2967,61.1109,18.3578,24.944,4.8201,49.9354,5.3473,74.9458,1.409,19.698-3.102,38.9659-8.2769,57.3055-16.1521,43.8771-18.8408,77.5616-48.8761,99.3678-91.7581,5.7954-11.3964,9.2668-23.3025,9.6867-36.0857,.0458-1.3935,.2469-2.8018,.1139-4.178-.4357-4.512-5.0389-7.2765-9.2825-5.3088-2.4901,1.1546-4.7127,2.954-6.9189,4.6421-32.9526,25.2119-68.8357,44.9321-107.8469,59.2633-31.1493,11.4432-63.0595,17.4533-96.204,17.8928-23.7024,.3144-47.4711,.1877-71.0116,3.6297-19.3233,2.8255-38.5915,6.0292-57.885,9.06-1.653,.2597-3.3126,.4786-4.8881,.7047-1.2225-2.3098,.5723-2.8636,1.4354-3.3563,14.5466-8.3051,29.0881-16.6243,43.7938-24.6415,2.9813-1.6253,6.6308-2.0244,9.972-2.9895,9.7121-2.8055,19.4561-5.5073,29.1247-8.4554,6.0041-1.8307,11.8954-4.0314,17.8353-6.0724,38.519-13.2356,74.7432-30.9522,107.8557-54.852,12.8069-9.2441,24.4788-19.6756,34.7098-31.6847,18.6192-21.8554,35.2853-45.0191,47.1107-71.3668,13.3941-29.8429,19.2958-61.0905,17.3387-93.757-.9616-16.0476-3.0729-31.9247-7.5144-47.45-1.7288-6.0415-4.6548-10.8241-10.5668-13.4818-3.6511-1.6415-7.0298-.7413-8.7841,2.93-1.6497,3.4524-2.8382,7.1225-4.2955,10.6696-22.2616,54.1775-51.071,104.6203-86.3933,151.3414-18.533,24.5138-38.2419,48.0384-59.3465,70.3852-14.1802,15.0149-29.6607,28.5662-46.3244,40.7427-16.6222,12.1463-32.9468,24.7306-50.7106,35.2391-1.2002,.71-2.4045,1.4443-3.4888,2.3144-14.1881,11.3871-30.4435,19.7024-45.1157,30.3698-.4651,.3381-1.1694,.3476-1.8056,.5222-.8966-2.3037,1.1802-3.163,2.2691-4.174,11.5036-10.6856,23.1033-21.2675,34.6933-31.8597,17.2572-15.7721,34.8491-31.1947,51.715-47.3743,23.4537-22.4993,41.1551-49.0981,53.8704-79.0197,7.1826-16.9021,10.7-34.7395,12.2852-52.8348,3.3779-38.5516-1.9243-75.8912-18.0234-111.3517-2.8783-6.3397-6.4025-12.3929-9.7797-18.4945-.9978-1.8023-2.3404-3.502-3.8397-4.9143-1.6168-1.5228-3.9238-2.0619-5.8029-.7759-4.0702,2.785-8.0045,5.9683-7.6425,11.6113,1.0519,16.3992-3.6805,31.8121-8.1591,47.2004-8.4433,29.01-20.5401,56.3341-38.6741,80.7445-5.6164,7.5605-10.935,15.344-16.6172,22.8534-22.2758,29.4396-38.9569,61.9587-52.7301,96.0351-14.6833,36.3277-26.2944,73.5809-33.206,112.2418-1.1568,6.4698-3.5962,12.7429-5.821,18.972-.7835,2.1938-2.6666,4.0068-4.1016,5.9541-6.4077,8.6974-14.1378,16.7101-19.0174,26.1912-16.2873,31.6473-32.0217,63.6438-35.2438,99.9826-.4609,5.2006-1.6065,10.3424-2.51,15.4982-.1003,.5713-.6927,1.0565-1.0581,1.5808-4.3428-7.2073-5.4178-11.3358-3.4737-17.1145,2.294-6.8177,2.5077-13.7139,1.4808-20.6684-.7115-4.8186-1.7465-9.6192-3.0414-14.3163-3.1689-11.4955-12.9211-18.5681-24.8473-18.3062-7.6974,.169-13.7479,3.4177-16.4241,10.7075-1.7068,4.6491-4.5876,7.4189-8.5606,9.9012-6.0119,3.7555-10.3346,9.3203-14.3761,15.0418-7.6967,10.8959-13.4866,22.7914-18.2067,35.2297-8.5555,22.545-14.7529,45.8271-21.5482,68.924-8.9232,30.3293-21.5077,58.96-40.0017,84.7675-1.712,2.3892-2.8038,5.7322-6.4848,6.3157-.0721-.7943-.3246-1.4806-.1582-2.0432,12.3158-41.7044,15.8289-84.2095,11.3135-127.3832-.4876-4.664,.6336-8.0392,3.6668-11.339,7.5545-8.2183,14.7386-16.785,22.4508-24.8491,12.5401-13.1122,25.4758-25.8453,38.0751-38.902,16.3139-16.9059,30.1298-35.7261,41.6845-56.1579,15.8606-28.0452,22.3693-58.4364,22.0263-90.4592-.0447-4.1639-.1832-8.3266-.274-12.3121,5.4861-5.8951,12.1534-7.0839,19.3845-6.3322,3.8155,.3966,7.5918,1.1663,11.4064,1.5783,12.7347,1.3758,22.5794-3.6303,29.2988-14.2837,2.9423-4.6645,5.108-9.8994,7.0447-15.0921,1.5753-4.2233,2.5208-8.7269,3.3298-13.1817,1.9695-10.844,7.6171-19.3872,16.0227-26.2048,3.7888-3.0731,7.6922-6.0781,11.8496-8.6111,15.0616-9.1767,21.8279-22.8597,22.7022-40.073,.6367-12.5485-2.0347-24.284-8.0553-35.2269-3.9425-7.1665-9.5252-12.8743-16.6375-17.0109-2.9586-1.7207-5.929-3.4216-8.5002-4.9043-.6253-2.4839,.9189-3.0062,1.9861-3.6953,14.9436-9.6529,27.0827-21.966,35.2295-37.869,4.7611-9.2944,9.3701-18.7031,13.3768-28.3391,6.5338-15.713,8.5845-32.3186,8.1045-49.2301-.5462-19.2476-2.7394-38.2696-8.729-56.6922-5.8081-17.8633-14.5597-33.9812-28.2457-47.0981-2.754-2.6398-5.724-5.1518-8.9248-7.2084-6.5872-4.232-12.3095-3.7218-18.1176,1.5927-3.0513,2.7924-5.6406,6.0898-9.0102,9.7864-1.3824-2.7562-2.3496-5.1882-3.7338-7.3533-4.6671-7.299-13.0969-7.5938-18.0498-.3855-1.9124,2.7829-2.9283,6.2719-3.9267,9.5683-1.0846,3.5815-1.6736,7.313-2.4838,11.0023-2.8356-.5941-3.0738-2.8978-3.5527-4.7645-3.034-11.8208-6.0235-23.6545-8.8632-35.5232-2.5156-10.5131-4.5984-21.1333-7.2719-31.6039-2.9561-11.577-7.9327-22.3408-14.374-32.4128-5.5213-8.6335-12.4745-15.9526-20.8153-21.8564-11.3987-8.0686-20.682-7.683-31.5027,1.0542-2.9849,2.4099-5.7154,5.1418-8.7565,7.4729-8.3957,6.436-17.5498,7.8947-27.6128,4.2318-5.9796-2.1766-11.4558-5.1118-16.4143-9.0438-4.3739-3.4685-8.5401-7.221-13.0825-10.4484-3.6714-2.6088-7.5607-5.1383-11.7167-6.7888-7.7449-3.0759-15.0841-2.0106-21.2926,4.0186-2.502,2.4296-4.8771,5.0024-7.5021,7.2899-4.6918,4.0888-9.7674,5.1734-15.2851,1.4441-1.7295-1.1689-3.5527-2.2149-5.3998-3.1908-12.7852-6.754-26.1024-5.0628-36.673,4.7803-2.2859,2.1287-4.1902,4.6671-6.2719,7.0156-2.0795,2.3467-4.0563,4.7957-6.2627,7.0161-4.7963,4.8257-10.6875,6.3916-17.2971,5.2098-3.7768-.6751-7.483-1.7551-11.2651-2.3924-15.5145-2.6142-28.7189,6.8726-30.6088,22.4663-.6622,5.4658,.1441,11.1097,.2816,16.6721,.0502,2.0318,.1057,4.0635,.1824,7.0022-5.2537-1.5442-9.5325-3.7225-13.9799-5.3948-16.6271-6.2518-33.3337-7.0627-50.1078-.6243-2.5994,.9978-5.1793,2.1215-7.6099,3.4716-12.9288,7.1824-18.2452,19.3624-14.1833,33.6415,1.4133,4.968,4.0432,9.6116,6.3197,14.305,1.9768,4.0759,4.5702,7.8749,6.3071,12.0397,3.8697,9.2785,1.7659,14.4318-7.2034,18.6401-2.841,1.333-5.8111,2.3906-8.6534,3.7215-2.2077,1.0336-4.3937,2.1634-6.442,3.4796-11.1836,7.1876-13.8585,17.1936-7.1376,28.7671,2.774,4.7773,6.7329,8.8657,10.1416,13.2758,2.5121,3.2497,5.6122,6.2017,5.8776,11.3391-2.1724,1.0223-4.2376,2.1332-6.4028,2.9907-13.9683,5.5311-19.3358,13.8807-18.6144,29.1103,.0814,1.7181,.2196,3.4337,.3851,5.9732-2.421-.3284-4.3148-.5143-6.1811-.852-5.4713-.9905-10.9087-2.7567-16.4011-2.935-16.6356-.5403-25.4522,13.128-18.7108,28.5079,2.5542,5.8271,6.3492,10.8348,10.9564,15.1924,5.3224,5.0342,10.9523,9.7619,16.0491,15.0105,3.6108,3.7182,6.8867,7.8682,9.7033,12.2194,2.4819,3.8343,2.1026,7.986-1.1622,11.5641-1.8808,2.0607-3.8282,4.0743-5.5512,6.2623-6.0386,7.6675-6.8494,15.9629-1.9772,24.3914,5.4317,9.3967,13.1243,16.18,23.9495,18.9417,4.3082,1.0989,9.0171,1.2957,13.0719,5.1625-1.2308,1.351-2.1552,2.6694-3.3643,3.6289-2.455,1.9484-5.2346,3.5091-7.5774,5.5736-6.754,5.9512-7.8873,12.8082-3.5405,20.6574,2.9589,5.3433,7.2941,9.3728,12.7298,12.062,5.0187,2.4828,10.2516,4.3583,15.9809,4.6105,5.5242,.2433,11.0354,.7798,17.6219,1.2666-2.2714,2.7948-3.886,4.8863-5.6103,6.8831-4.5974,5.3243-8.5134,11.0792-10.8325,17.7604-5.095,14.6783,.6198,28.1913,14.6485,34.8199,1.8913,.8936,3.9799,1.4168,5.7709,2.4642,2.3564,1.378,4.9742,2.7202,6.6589,4.757,4.4608,5.3937,9.8163,7.2712,16.6811,6.2574,6.0118-.888,7.6385,.1545,9.4282,5.4494,1.109,3.2807,1.6546,6.7585,2.3631,10.1667,.6383,3.0711,.8951,6.2432,1.7693,9.2398,3.5872,12.2963,17.0385,17.362,27.4928,9.8553,4.409-3.1656,7.954-7.7746,11.2243-12.2186,3.2896-4.4694,5.7472-9.5508,8.5747-14.3607,1.7676-3.0069,3.5103-6.0289,5.3232-9.0083,10.7854-17.7259,26.9286-24.4475,47.0793-22.7592,4.4926,.3765,8.9556,1.1084,14.0302,1.7525,.0656,5.5386,.2081,10.6716,.1729,15.8036-.1422,20.5996,.9757,41.1354,2.9037,61.6383,1.474,15.6746,4.3678,31.0681,8.562,46.2419,2.4127,8.7279,4.5232,17.5396,6.8924,26.7927-2.9043,3.0724-5.7588,6.0746-8.5943,9.0947-18.0566,19.231-32.6844,40.7333-43.6798,64.7696-13.6096,29.751-15.6128,60.4993-8.5533,92.0744,3.8773,17.3428,12.1986,32.6157,23.0146,46.5646,8.3417,10.7581,19.3635,17.9737,31.7615,23.2112,4.8111,2.0324,9.7309,3.8073,15.0709,5.8818,.0379,1.1218,.4995,2.5983,.0621,3.727-4.1443,10.7017-8.3374,21.3879-12.7961,31.9608-.7503,1.7798-2.7352,3.117-4.3216,4.4543-13.8944,11.7123-28.3159,22.731-43.8165,32.2432-5.0422,3.0942-10.3731,5.7681-15.7438,8.2646-7.5935,3.5295-15.3852,6.629-23.0225,10.0671-14.0682,6.3329-28.7055,10.771-43.7886,13.9621-14.3303,3.0321-28.5574,6.5504-42.8682,9.6802-2.2003,.4813-4.5346,2.0689-7.5283-.0953,3.4072-3.4556,6.7143-6.8439,10.0583-10.1954,9.3276-9.348,15.7972-20.4477,19.2502-33.112,8.5664-31.4168-4.1541-58.1898-27.679-76.8032-5.4189-4.2873-11.8137-7.3519-17.8127-10.889-2.0869-1.2303-4.3349-2.1877-6.3716-3.2011-2.4001-10.0387-4.4158-19.903-7.163-29.5589-2.7826-9.7817-7.8585-18.5746-13.9964-27.3348,3.4943-2.0096,6.4449-.3003,9.1786,.449,19.5869,5.3682,39.3494,4.9729,59.1841,2.0077,9.0155-1.3476,17.7269-3.9069,25.9255-7.9567,16.2439-8.024,22.1366-21.9424,16.6388-39.1525-.739-2.3134-1.6818-4.5615-2.4949-6.7449,.4138-.4161,.6128-.7643,.907-.8907,11.9031-5.1109,14.1586-9.115,12.1167-21.7288-1.1874-7.3356-3.9117-14.0822-7.8578-20.3714-7.0983-11.3132-15.6037-21.4202-25.6203-30.2601-18.7967-16.5889-39.8175-29.3861-63.7651-37.0663-4.957-1.5897-10.1236-2.67-15.2736-3.4742-5.138-.8023-10.3765-.9634-16.1238-1.4526,.2206-1.971,.297-3.9566,.685-5.8793,1.1032-5.4674,2.811-10.8565,3.4185-16.3717,1.4643-13.2902-2.9086-24.0679-14.966-30.9056-3.3237-1.885-6.839-3.4335-10.2824-5.1035-2.1388-1.0373-4.3075-2.0125-6.7933-3.1694,1.0336-3.3794,2.0436-6.3282,2.8361-9.3344,2.75-10.4362,2.5155-20.7609-1.8046-30.7511-2.6899-6.2201-6.6645-11.3686-13.026-14.4402-3.9554-1.9096-8.1029-2.7338-12.2102-1.7504-19.8003,4.7414-33.6255,27.2647-20.3669,47.3361,3.7168,5.6261,8.8355,9.8132,14.6737,13.1653,1.6895,.9699,3.1931,2.2635,5.2974,3.7803-7.9512,5.4796-15.6304,6.2962-23.3164,2.2951-13.6987-7.1309-21.0963-19.0549-23.39-33.9947-.6038-3.9328,.4149-8.4317,1.7728-12.289,3.9348-11.1758,8.2409-22.2311,12.732-33.1983,7.0035-17.1019,14.5898-33.9694,21.3708-51.1566,11.3891-28.8669,11.974-58.4701,5.067-88.4776-7.0633-30.686-19.668-58.8665-38.1939-84.3049-20.0405-27.5183-46.477-45.8786-79.5777-54.3537-15.7504-4.0329-31.7348-4.6243-47.7983-2.5891-34.0599,4.3153-64.8139,16.4089-90.7822,39.3745-3.9033,3.4521-7.4528,7.3385-10.9155,11.2462-5.0586,5.7083-7.1249,12.7077-7.8876,20.1411Zm579.6438,349.5238c12.2658-11.3955,25.1071-22.171,37.6624-33.2559,11.5082-10.1606,23.2687-20.0584,34.3968-30.6213,14.5928-13.8523,26.0302-30.1123,33.1754-49.0078,3.8167-10.0933,6.5524-20.5955,9.7609-30.9181,.3104-.9982,.3813-2.0894,.8049-3.0289,.4141-.9183,.0177-2.6759,2.2405-2.531,.6282,16.526-3.2908,32.0621-8.5108,47.2424-8.3267,24.2153-19.9123,46.8743-34.7892,67.7301-11.7463,16.4668-23.7906,32.7279-35.9973,48.8569-15.1569,20.0268-30.8962,39.6169-45.8632,59.7819-13.0357,17.5628-22.9716,36.9061-25.9626,58.7945-3.6197,26.4907-.6494,52.2335,12.6597,76.0841,.4906,.879,.728,1.8991,1.4831,3.9268-8.685-3.2924-13.7153-6.9019-19.8575-14.7045-10.7292-13.6296-18.4535-28.7629-21.8224-45.9028-5.7697-29.3603-2.5432-57.5715,10.5602-84.6412,12.467-25.7552,29.1489-48.3787,50.0592-67.8053Zm-16.8444,180.5513c.1024,.2181-.1518,.6037-.244,.913-.4184-.2848-1.1833-.5712-1.1818-.8536,.0025-.4686,.2873-.9356,.5273-1.4027,.3224,.437,.6725,.8611,.8985,1.3433Zm1.6808-299.6492c7.3133,7.0309,15.5143,9.7596,24.1126,11.474,3.0645,.611,6.21,1.1127,9.3223,1.1342,9.8145,.0684,17.4935,3.9065,22.8597,12.2006,.1874,.2901,.4467,.5334,.6676,.8027,5.6985,6.9397,12.7628,11.7205,21.5656,13.8698,1.4981,.3657,3.5394,.158,4.2829,3.0759-20.1537,21.7643-44.8862,38.7968-66.9218,59.3294-1.2344-1.3926-1.5757-1.612-1.673-1.9108-10.0963-31.0264-14.6455-62.953-15.395-95.4843-.0259-1.1162,.5688-2.2466,1.179-4.4914Zm-173.1407-62.0513c2.8037-6.535,6.9271-12.1009,12.2904-16.7139,13.4706-11.5864,28.4371-20.1484,46.3778-22.575,5.1824-.701,10.3888-1.2645,15.5394-2.1498,5.524-.9491,9.5984,.3347,14.0117,4.4602,16.8769,15.7761,36.1147,27.1127,59.7616,29.8442,18.4116,2.1267,34.6322-1.6061,48.0709-14.9381,.947-.9397,2.1009-1.6711,3.417-2.7012,3.3435,2.6017,5.2067,5.9616,7.0316,9.2047,4.7334,8.4138,5.5299,15.196-6.3837,22.7509-1.7421,1.1048-3.7644,1.8478-5.7459,2.4798-8.0377,2.5636-16.2554,4.1152-24.723,3.2551-6.9354-.7046-13.8245-1.8736-20.7606-2.5687-25.2886-2.5347-46.1483,4.916-60.1847,27.2338-3.5245,5.604-6.6701,11.4454-10.0878,17.1188-2.1563,3.5794-4.3461,7.1578-6.8081,10.5265-1.4157,1.9369-3.2124,3.7293-5.1754,5.1041-4.1788,2.926-8.3792,1.3582-9.6737-3.5957-.8782-3.3616-1.0137-6.922-1.9436-10.2648-1.3912-5.0025-2.585-10.2066-4.9557-14.7555-3.532-6.7778-9.4785-10.0142-17.4116-8.5698-1.6908,.3077-3.409,.4645-5.2882,.7139-3.3899-3.086-5.7074-5.8128-8.592-7.6482-2.885-1.8358-6.3559-2.7371-9.5311-4.1365-1.2669-.5583-2.4878-1.2683-3.6301-2.0538-7.3479-5.0531-9.1669-11.7182-5.6051-20.021Zm59.435-262.5108c-.023-4.5275,.1376-9.0723,.5265-13.5826,1.4135-16.4007,10.2736-22.015,25.8764-16.3009,16.0928,5.8935,29.4786,15.597,40.1717,29.0388,2.4932,3.1343,3.8415,6.3437,3.7371,10.4866-.4101,16.2938-3.4821,31.8945-11.7004,46.136-6.0952,10.5617-12.5074,20.9424-18.8617,31.3529-7.8311,12.8296-14.7821,26.0727-19.5391,40.3863-6.5918,19.8349-8.4152,40.1805-6.6358,60.9293,.29,3.3809,.3625,6.7804,.6246,11.9132-13.5067-8.8111-21.5904-19.6651-27.5449-32.0251-8.9614-18.6019-15.5785-38.0669-19.1005-58.4761-.7677-4.4497-1.1669-8.995-1.3348-13.5111-.8888-23.8872,5.4135-45.4799,20.7651-64.1386,1.7687-2.1499,3.3153-4.4829,4.9555-6.7378,5.5224-7.5923,8.1083-16.0859,8.0602-25.4709Zm82.041-2.2231c-.208-5.9173-.4848-11.8446-.3536-17.7589,.173-7.8029,3.2817-9.7991,10.772-7.2224,7.6534,2.6329,13.1121,7.7964,16.6009,15.0098,1.2078,2.4974,2.0318,5.1888,2.9291,7.8262,1.9898,5.8473,5.4468,10.672,10.8636,13.5792,10.3563,5.5582,15.4833,14.6539,18.307,25.5104,2.8998,11.1498,5.0183,22.4234,5.9605,33.9294,1.7645,21.5536,2.4901,43.1497,1.9261,64.7489-.5371,20.5585-1.7185,41.1077-5.8446,61.4257-2.6932,8.6418-5.3416,17.2977-8.0963,25.9197-1.6315,5.1061-4.7101,9.3649-8.6467,12.8876-9.0598,8.1085-19.7508,11.1565-31.8513,10.3378-22.3001-1.5088-40.6338-11.5099-56.8564-26.0693-5.8256-5.2286-10.2316-11.5834-11.1623-19.5918-2.0985-18.0613-3.0341-36.141,1.162-54.0707,4.4207-18.8887,12.876-36.0017,23.0679-52.3759,6.2578-10.0535,12.269-20.2625,18.2684-30.4739,4.6183-7.8609,7.7872-16.2873,9.9504-25.1786,3.0855-12.6823,3.4577-25.5057,3.0032-38.4333Zm-49.61-38.9113c.4883-1.1718,.5909-1.9603,1.0365-2.4071,9.7723-9.8012,16.2507-21.6151,21.6327-34.2327,1.8852-4.4197,4.9787-8.3659,7.7966-12.3322,2.0613-2.9018,4.7608-5.1183,9.2652-4.5531,5.6283,5.4545,12.5409,9.132,20.8644,9.9943,3.6026,.3733,6.595,2.3602,8.7316,5.2717,2.8842,3.9308,5.6825,7.9409,8.231,12.093,1.0542,1.7174,1.7055,3.8483,1.956,5.8639,1.1705,9.4167,.8785,18.7224-3.1958,28.8309-3.1333-1.6156-5.5246-3.0362-8.0631-4.1078-2.8729-1.2128-5.8071-2.4509-8.8385-3.0881-11.3612-2.3886-19.0594,2.7517-21.4804,14.0367-.5352,2.4939-.1059,5.3387-2.0994,7.8627-6.0763-4.6172-11.36-9.1538-17.158-12.8933-5.9884-3.8624-12.4768-6.9496-18.6788-10.3389Zm94.7785-58.6087c3.0476,2.1656,5.9789,3.9857,8.608,6.1696,6.017,4.9982,12.8427,6.7902,20.5008,5.7173,3.4517-.4837,6.8932-1.0375,10.3414-1.5453,9.5306-1.403,17.1642,2.2339,23.1502,9.3238,4.9981,5.9201,8.384,12.8282,10.4625,20.3199,.8651,3.1179,.7485,5.9912-1.1571,8.965-3.4202,5.3375-5.441,11.2724-6.0814,17.6492-.1197,1.1916-.1276,2.927-2.5133,2.6416-1.1157-2.3577-2.1783-4.896-3.48-7.3047-6.5476-12.1157-16.6224-16.731-29.7404-12.8819-5.2636,1.5444-10.4481,4.0461-15.0245,7.0826-6.7446,4.4755-11.7078,10.8795-15.8983,17.815-1.5766,2.6095-3.1892,5.1972-5.0509,8.227-1.0313-1.2296-2.1885-1.9969-2.1242-2.6426,.2384-2.3981,.688-4.8153,1.4001-7.1196,3.9847-12.8923,4.4806-26.0376,3.081-39.3412-.1823-1.7343-.3919-3.4674-.5142-5.2062-.3919-5.5625-.8928-11.1231-1.0688-16.6933-.1211-3.8264,.1565-7.6959,5.1091-11.1762Zm70.9708,96.2248c1.6548,.5365,3.358,.9556,5.0662,1.2907,6.7697,1.3276,12.2455,4.6232,16.6467,10.0172,3.7436,4.5874,7.8538,8.863,13.2062,11.7381,8.6437,4.6426,14.441,11.8755,18.4989,20.6682,12.8643,27.8744,20.6735,56.9335,20.8662,87.8267,.1313,21.0491-2.2805,41.7156-8.6864,62.162-8.8962,2.5608-14.623,8.9675-19.3976,16.4751-.5598,.8804-1.2645,1.6674-1.8566,2.5287-2.6289,3.8238-6.1069,6.6598-10.1831,8.806-17.2899,9.1037-35.5691,14.2306-55.2425,13.3947-10.1763-.4324-19.9052-2.7315-28.7298-7.4321-.6401-4.6733,1.0905-8.2367,2.2086-11.8223,4.8072-15.4144,7.1087-31.2864,8.5727-47.266,2.8683-31.3119,2.2982-62.6546,.0952-93.9892-1.0061-14.3123-3.4396-28.3629-7.4494-42.1341-3.4256-11.7664-9.5473-21.6161-20.2502-28.1825-.8591-.527-1.4848-1.4338-2.7961-2.7382,3.6541-10.9249,8.4566-20.4325,16.2935-28.2542,4.05-4.0426,8.7352-6.9122,14.1835-8.5365,9.0363-2.6934,13.8707-.6398,17.7814,7.8885,1.5902,3.4674,2.5941,7.2073,3.8074,10.8424,2.8741,8.6105,8.8766,13.9648,17.3653,16.7166Zm-265.0492,101.2808c6.5891,6.7276,13.1743,13.5041,20.2824,19.6559,2.8835,2.4953,4.2333,5.1401,5.3092,8.5317,3.7958,11.9669,7.4642,23.998,11.9022,35.7319,6.5109,17.2134,16.0986,32.4838,30.58,44.2938,1.005,.8193,1.7557,1.9499,3.6781,4.1308-13.6984,2.3256-25.6175,4.8994-36.6694,10.4356-1.2075,.605-2.6537,.834-4.0186,1.0076-11.8073,1.5027-23.6526,1.621-35.4955,.5998-2.7527-.2375-5.5892-.818-8.136-1.8571-5.5791-2.2761-10.6887-5.2534-12.1791-12.4027,1.6208-1.5242,3.2557-3.2875,5.1216-4.7586,2.187-1.7241,4.6645-3.0783,6.8592-4.7939,10.719-8.3786,6.0382-18.3822-2.2399-22.7291-2.7499-1.444-5.8561-2.2316-8.835-3.2117-2.6491-.8718-5.3661-1.5367-8.0202-2.3955-5.9189-1.9148-10.2129-5.9316-13.5766-10.9728-3.3886-5.0786-3.1963-8.6388,.5488-13.3853,1.2925-1.6381,2.8999-3.0249,4.234-4.6338,7.1805-8.6594,8.251-17.4884,2.292-27.0141-3.2882-5.2566-7.619-9.9404-11.925-14.4583-4.3226-4.5355-9.3144-8.4254-13.7873-12.8275-2.719-2.6759-5.195-5.6531-7.427-8.7493-1.396-1.9362-2.4262-4.259-3.1105-6.5597-1.45-4.8751,.7326-8.4034,5.6593-9.1499,2.3681-.359,4.921-.4503,7.243,.0375,4.4221,.9291,8.8552,2.0514,13.079,3.638,18.5677,6.9739,34.738,17.6514,48.6313,31.8368Zm380.8478-86.3029c-.5365,1.197-.8513,2.711-3.2427,2.238-1.0507-1.7753-2.3197-3.8175-3.4898-5.915-5.0548-9.0608-11.8923-16.3416-21.2489-21.0095-11.995-5.9839-20.6906-15.1565-26.7984-26.986-1.7566-3.4029-3.6848-6.7583-5.908-9.8684-2.625-3.6724-5.3226-7.4053-8.5746-10.4952-8.531-8.1058-18.3082-11.2142-29.668-6.0382-.9363,.4264-1.9851,.6053-3.3661,1.0127-.7772-1.507-1.531-3.0186-2.329-4.5066-2.4696-4.6053-4.5653-9.4702-7.509-13.7512-9.0751-13.1989-21.5629-19.3686-37.7423-17.1791-2.4182,.3271-4.8443,.6312-7.2367,1.0993-5.4861,1.0732-10.3787,.0323-14.6061-3.7539-1.0373-.9289-2.1476-1.7825-3.2682-2.6112-12.1236-8.9654-22.8368-5.7329-27.7245,8.3737-.3405,.9824-.438,2.0469-.744,3.044-.4523,1.4737-.9901,2.9212-1.4193,4.1696-4.814-2.124-8.7811-4.6015-13.0911-5.5989-5.881-1.3611-11.1016-3.2217-15.9116-7.1713-6.0221-4.9451-13.036-4.7521-19.4463-.3863-3.1067,2.1157-6.1842,4.7747-8.2025,7.8837-4.1568,6.4038-7.9017,13.1252-11.2431,19.9947-3.6837,7.5739-7.706,14.7721-13.5494,20.9659-3.0161,3.1967-5.2642,7.1176-8.0524,10.978-1.1408,.0318-2.5192,.0496-3.8957,.1113-13.1301,.5874-21.7724,7.1027-24.9204,19.71-1.5076,6.0366-2.5506,12.4023-2.4198,18.5897,.2575,12.1901-3.7056,22.274-11.5055,31.5687-12.8995,15.3727-19.8267,33.4656-21.8553,53.3893-.6632,6.5153-.8547,13.0784-1.394,21.7457-3.0892-2.8274-4.695-4.1068-6.0782-5.5934-10.9844-11.807-23.1512-22.1516-36.9652-30.553-8.2364-5.0091-9.5542-13.2855-9.2601-21.8872,.2091-6.1094,3.4542-10.4766,9.4296-12.5182,1.98-.6764,4.001-1.2563,5.926-2.0646,9.2485-3.8838,12.3781-11.0565,8.1604-20.3014-1.9901-4.3621-5.2219-8.1849-8.0788-12.1157-2.4557-3.3789-5.4979-6.3625-7.711-9.8795-3.8564-6.1283-2.8231-10.2668,3.4-13.9324,3.5851-2.1116,7.6406-3.4121,11.2946-5.4227,3.9304-2.1627,8.1434-4.197,11.3386-7.2297,6.7325-6.3895,7.9706-14.6457,5.0501-23.1676-1.9042-5.5564-4.9275-10.7311-7.4757-16.0641-1.9493-4.0797-4.4179-7.9827-5.8141-12.2402-2.9947-9.13,.1806-16.6064,8.4978-21.1645,2.1293-1.1671,4.4141-2.0867,6.6976-2.9305,18.9005-6.9848,36.3494-2.215,53.2088,6.7658,5.8387,3.1101,10.0083,7.3557,9.9129,14.7411-.0394,3.0583,1.0332,6.1789,1.908,9.1816,.4714,1.6184,1.4146,3.1879,2.4662,4.5273,1.403,1.7873,3.4083,2.3491,5.6169,1.5515,2.1016-.759,3.5865-2.1801,3.8838-4.4699,.1306-1.0045-.062-2.0685-.2146-3.0896-1.9524-13.0729-4.0583-26.1248-5.8248-39.2227-.6953-5.1563-.7088-10.4107-.9157-15.6252-.349-8.7949,8.0115-14.8068,16.1332-13.6892,2.7521,.3787,5.4701,1.0631,8.1724,1.7334,14.2892,3.545,26.16-.1926,35.5238-11.6544,2.4253-2.9685,4.7456-6.0541,7.4314-8.7723,7.4638-7.5547,15.4254-8.6721,24.7307-3.7109,1.2286,.6552,2.3735,1.4652,3.5759,2.1714,11.3907,6.6901,19.5148,6.1464,29.6453-2.2012,2.681-2.2091,5.0614-4.7909,7.5165-7.2645,2.4682-2.4864,5.4092-3.31,8.5967-2.0298,2.8796,1.1565,5.7711,2.5131,8.2822,4.3067,4.2493,3.0348,8.0413,6.715,12.3214,9.7001,5.4125,3.7751,10.8068,7.816,16.7618,10.5281,16.7584,7.6323,32.568,5.9706,46.6928-6.512,1.5683-1.3857,3.0984-2.8167,4.7031-4.1588,7.9041-6.6116,12.0954-6.7433,20.324-.3,6.9244,5.4222,12.7058,11.9032,17.2318,19.489,5.4001,9.0511,9.5069,18.6634,12.1056,28.8516,2.1532,8.4402,3.7644,17.0169,5.7446,25.5031,2.8512,12.2194,5.586,24.4736,8.8083,36.5966,2.7092,10.1931,6.6976,19.8347,15.5078,25.8576,1.1486,18.6027-1.4316,34.2294-7.8994,48.6569Zm-15.3506,140.0828c-2.175,9.63-6.2234,17.6253-14.1561,23.5618-1.2907,.9659-2.2536,2.7368-3.6624,1.7393,1.1655-13.9219,2.7823-27.4241,3.3354-40.9698,1.4678-35.9561-7.1321-69.8183-22.4674-102.1257-4.7442-9.9949-11.6333-18.1172-21.3077-23.7844-2.6762-1.5676-5.1829-3.5386-7.452-5.6613-4.0629-3.8003-7.4532-8.4703-11.9319-11.6323-4.4526-3.1434-9.8996-4.8787-15.7668-7.6334-.9332-6.2497-.6429-12.1143,.0519-18.0188,.857-7.2824,4.3226-13.2186,9.233-18.3556,7.2161-7.5487,14.3708-7.8261,21.8688-.726,2.753,2.6068,5.0573,5.7602,7.2104,8.9079,2.3568,3.4458,4.4283,7.1056,6.4036,10.7905,6.7924,12.6719,16.4262,22.559,29.2622,28.9794,9.5933,4.7983,15.6818,12.4629,20.1356,21.8315,4.0992,8.6227,5.9681,17.8087,6.9865,27.2147,3.8726,35.7668,.1476,70.9443-7.743,105.8822Zm51.9977-12.4623c-3.0216,1.4245-6.737,2.2557-10.0428,2.0315-9.2182-.6257-17.1543,2.0679-24.3594,7.5657-1.2899,.9841-2.6354,2.4205-4.7752,.3508,4.5272-19.1201,6.8255-38.8317,7.9461-58.6655,1.1206-19.8389,.3795-39.6372-2.7946-57.7199,3.2793-6.2642,6.0904-11.0542,8.3635-16.0871,6.2622-13.8674,8.6579-28.5817,9.1407-43.696,.3781-11.8293,.9067-23.6541,1.4336-35.4781,.0745-1.6686,.1725-3.5671,2.8771-3.7372,.8138,1.3829,1.5138,3.0084,2.5893,4.3276,5.2243,6.4064,10.9003,6.7686,16.9267,.9832,1.9939-1.9142,3.5152-4.3107,5.3682-6.3837,1.7976-2.0108,3.7436-3.8891,5.397-5.5915,4.8948,.681,7.2871,3.8876,9.9658,6.489,12.5728,12.2092,20.4086,27.2467,25.4682,43.8132,5.7492,18.8261,7.7488,38.1969,7.4214,57.7971-.1039,6.2346-.9373,12.4952-1.9061,18.67-3.2588,20.7631-12.6509,39.0788-24.0611,56.2717-8.6218,12.9906-20.8431,22.405-34.9584,29.0592Zm-75.1122,171.3939c-.5768-2.9827-1.2484-6.3506-1.8768-9.7268-3.1467-16.9042-8.4143-33.1284-15.7462-48.6697-1.4822-3.1416-3.222-6.2052-5.2048-9.053-1.6195-2.3266-3.9331-4.1013-7.083-3.5797-3.4293,.5675-5.7854,2.715-6.5096,6.027-.8142,3.7236-1.3441,7.5556-1.528,11.3631-1.1535,23.8968-5.5627,47.1021-14.4053,69.3903-3.6131,9.1066-7.9208,17.8343-14.3192,25.5981-11.5903,2.9673-21.2638,.0142-28.9929-9.2233-1.5677-1.8737-3.2251-3.6746-4.7449-5.5854-5.8139-7.309-13.5872-10.6395-22.6961-11.3814-4.165-.3394-8.3335-.7041-12.475-1.2497-9.5316-1.2556-16.9765-5.9334-22.4603-13.8475-1.567-2.2614-3.4725-4.2884-5.328-6.551-.1379-5.12-.2771-10.2778-.4267-15.8351,2.5059-.2567,4.5537-.3176,6.5406-.6966,7.1771-1.3696,14.4124-2.5421,21.4731-4.3766,5.8189-1.5117,10.7774-4.8841,14.9503-9.2836,6.4795-6.8318,9.1739-14.674,6.4638-23.9992-.7495-2.5788-1.3212-5.209-1.9963-7.9023,1.3108-.1344,2.0098-.3602,2.6498-.2491,26.0829,4.5267,50.6339-.1666,74.0822-12.0203,7.0236-3.5505,12.8927-8.2496,17.2929-14.7826,1.3634-2.0243,2.8409-3.9717,4.2462-5.9682,2.5326-3.5979,5.7002-5.8821,10.3458-6.181,5.8728-.3782,10.4534-3.6294,14.5073-7.6374,1.7343-1.7149,3.3692-3.5378,4.965-5.3844,11.0546-12.7913,24.8535-22.3969,38.0274-32.7181,3.9969-3.1316,8.698-4.047,13.8007-3.8724,6.4467,.2206,12.2432,2.591,18.1754,4.6274,15.2008,5.2182,24.1781,15.8618,27.6957,31.4151,1.4844,6.5636,1.5968,13.1565,.8521,19.768-1.1122,9.8723-5.5153,17.8825-13.843,23.5892-4.6063,3.1567-9.2197,6.3185-13.6534,9.7086-11.4769,8.7761-19.4808,19.7582-22.1286,34.3501-.9908,5.4595-2.8967,10.773-4.6498,16.0656-.8679,2.62-2.1482,5.1531-3.5662,7.532-4.7932,8.0404-11.6675,11.6554-21.1485,9.7325-8.2732-1.6779-16.5724-2.2962-24.8828-.0196-1.8787,.5146-3.6431,2.1293-6.4029,.6268Zm-139.5048,241.5141c-14.6291,18.8381-23.4103,40.2676-24.0544,64.5378-.0518,1.9409-.547,3.8703-.888,5.8089-.7691-.8684-1.8261-1.6756-2.0365-2.6629-3.156-14.8071-3.8229-29.6665-.8023-44.6123,3.8057-18.8314,12.1828-35.5741,23.6369-50.7581,15.7407-20.8656,31.9898-41.3472,47.7761-62.1791,11.153-14.7178,22.057-29.6312,32.7874-44.6606,13.6254-19.0832,24.7473-39.5812,33.2742-61.4376,6.6099-16.9428,12.1437-34.1767,12.9984-52.5607,.0574-1.2322,.5093-2.4457,1.3359-6.2096,1.2027,4.2861,2.0173,6.1721,2.2315,8.1239,1.1012,10.0376,2.602,20.0733,2.9467,30.1442,1.083,31.6568-5.1864,61.739-21.0161,89.4376-10.5875,18.5259-23.1396,35.6813-37.8798,51.1323-12.2717,12.8637-25.1102,25.1922-37.229,38.1944-11.3986,12.2293-22.8432,24.5179-33.0812,37.7017Zm-3.345,103.0357c-13.5404-18.038-10.5531-64.9754,5.2246-82.0905,3.5396,19.1706,.4239,68.1245-5.2246,82.0905Zm382.8549-358.8539c3.1442-2.2399,6.0942-4.4515,9.1518-6.5028,34.9654-23.4581,66.5528-50.771,94.1544-82.6098,15.5748-17.9655,29.8236-36.9442,41.1665-57.8747,20.2001-37.2737,36.4083-76.1331,45.1052-117.8416,.4787-2.2961,1.2874-4.523,1.9425-6.7822,5.2194,11.9593,5.8181,24.1439,6.5526,36.2622,1.6075,26.5207-2.4348,52.2822-12.3766,76.8888-14.4637,35.7991-36.8107,66.3201-64.2036,93.2905-1.9857,1.9549-4.1175,3.7766-6.2925,5.5219-33.028,26.504-70.259,45.3208-109.803,59.8708-1.4497,.5336-3.1176,1.8345-5.3973-.2233Zm-10.8932-9.1685c2.5898-2.2044,3.998-3.5488,5.549-4.7009,21.0667-15.6491,40.1242-33.4742,57.6371-52.9916,42.2833-47.1227,79.7866-97.6358,109.3385-153.8101,1.2005-2.2819,2.8363-4.3347,5.1532-7.8267-11.6688,42.5122-40.5835,94.9705-71.5418,130.6137-30.0331,34.5786-81.9083,78.2199-106.136,88.7156Zm-43.2573,91.4406c3.3597-.5489,4.5731-.9738,5.7575-.905,9.7388,.5649,19.4649,1.4108,29.2093,1.816,31.4324,1.307,62.6633-.1474,93.5629-6.6907,38.9571-8.2496,74.9893-23.6724,109.2285-43.6862,17.5368-10.2506,34.0592-21.7749,48.1204-36.5884,1.2195-1.285,2.1121-3.5422,4.6619-3.0035,1.7715,5.0281-1.0618,8.9581-2.9961,12.899-6.1716,12.5743-13.9916,24.0619-23.393,34.4865-23.6155,26.1858-51.603,45.6348-85.6378,55.7856-7.0092,2.0904-14.0745,4.0094-21.1619,5.8207-38.2473,9.7759-76.0297,7.0496-113.4029-4.564-12.9759-4.0323-25.822-8.4817-38.7137-12.7814-1.1475-.3826-2.1932-1.0696-5.2351-2.5884Zm-14.2711-15.7523c2.2719-.5213,4.5235-1.1651,6.8185-1.5453,24.4507-4.0487,49.0222-6.7788,73.8466-6.9043,9.4091-.0476,18.8161-.4382,28.225-.6249,31.3192-.6207,61.6947-6.1903,90.9783-17.4071,10.744-4.1153,21.4048-8.4469,32.1508-12.5567,1.2785-.4891,2.8433-2.2175,4.3532-.1262-.5632,.525-1.0158,1.0895-1.5944,1.4555-1.1742,.7438-2.4097,1.3928-3.6319,2.0592-48.371,26.377-99.9606,40.3863-155.1898,40.9018-20.6095,.1924-41.0935-1.6279-61.6294-2.65-4.7506-.2364-9.4894-.722-14.2333-1.0929-.0312-.503-.0626-1.0061-.0936-1.5091Zm-25.6335-60.0871c.1893-2.9703,2.6561-4.5269,4.3438-6.5154,9.697-11.4247,19.688-22.6066,29.1705-34.2049,32.1774-39.3565,56.8249-82.5423,67.7394-132.8297,4.9063-22.6047,8.3079-45.243,6.3619-68.4276-.9616-11.4527-2.0437-22.8953-3.0071-34.3478-.1251-1.4848,.1338-3.002,.2769-5.6537,5.6286,10.0279,10.7273,23.4097,13.1256,35.3345,5.6065,27.8745,7.632,55.8804,2.8612,84.1464-2.1589,12.7908-5.3689,25.2647-10.6348,37.0982-11.5853,26.0323-27.0144,49.5814-47.2855,69.6756-18.5683,18.4064-37.6604,36.2824-57.8829,52.8944-1.4718,1.2091-3.3545,1.9174-5.069,2.8301Zm-5.2973,3.1186c2.6085-1.3747,3.8715-2.0407,5.0579-2.6656-.3313,1.7828-1.3851,2.7545-5.0579,2.6656Zm-34.8276,21.2776c1.6717-6.2838,2.9769-12.7979,5.1382-19.0144,6.7512-19.4177,13.2827-38.9396,20.8988-58.022,12.1795-30.5163,27.3961-59.4864,46.9607-86.0296,5.997-8.136,11.8531-16.3762,17.8902-24.4819,17.0318-22.8681,29.5116-48.0342,38.2441-75.1263,1.267-3.9313,2.8711-7.7541,4.4827-12.065,.884,1.2434,1.5132,1.7426,1.6039,2.3256,.321,2.0616,.4998,4.1488,.6573,6.2317,2.6845,35.5202-5.1547,69.3324-17.0151,102.4022-8.7679,24.4466-21.7822,46.6673-36.7517,67.8125-15.5442,21.9567-33.1457,42.2103-51.1576,62.1172-9.3609,10.3455-18.7287,20.654-26.7853,32.084-.757,1.0738-1.3277,3.3895-4.1662,1.766ZM93.8393,1447.0121c-2.4484,1.7814-3.9736,3.3159-5.8153,4.1549-6.6479,3.0276-13.3274,6.013-20.132,8.6626-14.2026,5.5305-27.8658,4.1677-41.1381-3.3406-16.857-9.5359-18.1099-18.2568-9.304-34.2756,4.1432-7.5373,10.7952-12.0158,19.2889-12.6182,14.0034-.9926,27.0017,1.9919,37.6975,11.8806,7.7241,7.1418,13.7111,15.5818,19.403,25.5363ZM439.4705,570.2849c-9.2528-.9056-16.0164-5.4272-21.1861-12.3745-4.7247-6.3494-4.4393-15.2986,.69-21.3527,3.6315-4.286,7.9583-8.6263,14.05-7.7415,6.696,.9728,9.5524,6.6974,11.0587,12.5806,2.503,9.7768,2.1977,19.3592-4.6126,28.8881Zm157.6002,165.0359c-3.5039-.7695-6.6479-1.0748-9.5031-2.1484-20.9354-7.8724-42.4608-13.5363-64.4096-17.7091-28.9987-5.5131-58.1338-6.2169-87.319-2.0436-17.7995,2.5453-34.6025,7.9861-48.8914,19.5487-.8861,.717-2.2,.9053-3.9043,1.5694,.7157-3.259,.9172-5.734,1.7962-7.9391,8.8233-22.1346,19.7553-43.0101,36.4745-60.3922,7.0554-7.3349,15.0409-13.4571,23.7608-18.6604,6.8901-4.1115,13.7398-4.8745,20.3774,.4402,2.7641,2.2135,5.5313,2.2706,8.7759,1.1796,11.4261-3.8415,22.7497-2.2183,33.8474,1.3904,11.625,3.7802,22.6733,8.9631,33.1118,15.3235,19.2367,11.721,36.2282,25.9073,48.6949,44.9981,3.8595,5.91,6.9499,12.0955,7.7716,19.1786,.1854,1.5983-.3422,3.2793-.5831,5.2643Zm-128.3083,50.936c-16.0041,.0481-32.0225,1.2687-48.0306-.294-9.7862-.9554-19.2636-2.9261-28.332-6.8067-4.6334-1.9829-8.3742-4.9612-11.0772-9.1932-2.4284-3.8015-2.8893-7.7659-.7008-11.8771,2.4798-4.6583,5.7028-8.6722,9.5881-12.2857,12.4838-11.6098,27.6109-17.5621,44.0848-19.9795,11.6845-1.7148,23.5429-2.5752,35.3541-3.0209,21.7262-.82,43.0949,2.3275,64.2872,6.9445,8.0958,2.1004,16.1175,4.5728,24.3064,6.2071,10.2025,2.0363,17.1807,8.7641,24.1085,15.5559,2.148,2.1054,3.5937,5.1601,4.7217,8.0315,4.4507,11.3322,1.2738,19.5901-9.5594,25.2406-6.8562,3.5764-14.2175,5.7099-21.822,6.9574-18.7571,3.0777-37.4402,3.5435-55.9287-1.8299-10.1302-2.944-20.4444-3.6817-31.0002-3.65Zm7.9948,130.3108c-13.5319,16.5777-31.8722,24.3013-52.2369,28.0373-9.2659,1.6998-18.6521,2.3689-28.0297,.3161-14.0479-3.0756-25.4222-15.2228-27.4674-29.418-1.207-8.3809,.6086-16.0123,6.1456-22.4544,8.2773-9.6293,17.8344-17.5019,30.062-21.863,18.9023-6.7418,38.2467-10.7095,58.3633-9.4432,10.372,.653,20.7893,1.6091,31.2503,5.0977,.3464,1.9899,.6786,3.0053,.6641,4.0157-.025,1.7347-.0946,3.5019-.4435,5.1943-3.0664,14.8706-8.608,28.6345-18.3078,40.5176Zm328.3364,938.4818c-8.2343-5.2501-16.6754-10.1826-24.8135-15.5746-20.1371-13.3424-38.6716-28.6228-55.3737-46.1285-11.1848-11.7223-20.2596-24.8755-27.6321-39.24-4.1748-8.1348-7.0476-16.6956-7.9168-25.8689-1.4913-15.7335,3.4245-28.9506,15.7537-38.9852,4.2985-3.4988,8.9683-6.7678,13.9352-9.1814,30.4551-14.7977,62.3448-19.4623,98.9942-12.2123,3.8159,1.318,10.9287,3.243,17.6035,6.1673,39.2875,17.2123,60.9619,47.7054,65.7385,89.9459,3.0497,26.9716-6.5712,49.3894-27.9352,66.3385-5.4358,4.3126-11.39,8.1016-17.494,11.4162-12.3164,6.6892-25.5882,11.0513-38.9885,15.0703-4.4418,1.3321-8.118,.6459-11.8712-1.7474Zm-436.0839-217.5161c3.6157-1.4264,6.7516-2.7439,9.9431-3.9089,18.4715-6.7412,33.9701-17.7534,46.5161-32.8151,12.0186-14.4284,18.6942-30.9399,18.3975-49.9644-.3962-25.4235-20.15-46.5772-45.5759-49.0557-12.9826-1.2658-24.967,1.0877-35.9287,8.376-1.793,1.1922-3.3791,3.7707-6.4012,2.1379,.5271-7.1217,3.8956-13.3474,6.4161-19.7846,8.4141-21.4904,18.2694-42.2893,31.7353-61.1435,35.0811-49.1204,80.7493-84.4121,137.6029-105.0981,33.8639-12.3214,68.8031-20.7071,103.854-28.6658,34.0167-7.7239,68.2095-14.6942,102.1401-22.7725,51.2665-12.2059,99.9759-30.8823,144.4959-59.5885,1.3535-.8727,2.7013-2.3401,4.3393-1.2398-.8443,9.5199-2.3078,18.8558-2.3861,28.2033-.2761,32.9471,3.6909,65.4153,12.0141,97.3437,8.1058,31.0947,17.8652,61.6613,28.7655,91.8751,21.2683,58.9508,47.1535,115.5987,81.2879,168.4192,22.1269,34.2394,47.8758,65.3347,77.2919,93.2991,22.4968,21.3868,46.5667,41.0552,71.5336,59.5913,14.2786,10.6008,28.3298,21.5403,42.0289,32.8763,7.2214,5.9756,13.5752,13.026,20.1022,19.8016,2.6447,2.7455,4.92,5.9144,6.9988,9.1268,11.2376,17.3626,12.1146,35.2689,2.2242,53.4898-9.1705,16.8945-23.2758,28.4962-40.3569,36.7267-10.4387,5.0299-21.5042,8.1992-32.8317,10.4639-16.4416,3.2865-33.0288,5.631-49.7788,6.3857-58.5709,2.6389-116.4386-2.4222-173.4115-16.5382-32.6139-8.0806-64.0687-19.4631-94.3936-33.9376-2.3775-1.1346-4.5677-2.6616-8.0004-4.6887,5.4287-2.0512,9.6119-3.6308,13.7939-5.2127,15.7752-5.9658,30.6957-13.4148,43.3684-24.8145,20.1725-18.1463,30.2438-40.6978,28.846-67.8749-2.8472-55.3518-39.5488-100.9667-97.5891-113.0656-33.5422-6.992-66.0083-2.3421-97.1432,11.4788-6.9488,3.0843-13.671,7.1212-19.6952,11.7614-17.5727,13.5366-24.2089,31.7564-21.3256,53.6093,1.2943,9.8095,4.5413,18.9834,9.0558,27.7235,7.8949,15.2844,17.556,29.3203,29.5567,41.7158,12.1599,12.5594,24.9179,24.4581,39.106,34.6921,10.178,7.342,20.6996,14.2062,31.0289,21.3403,1.5965,1.1027,2.9839,2.508,5.5563,4.7011-5.472,1.0047-9.4978,1.8666-13.5619,2.4699-32.9128,4.887-65.9935,5.8985-99.1622,3.8045-31.512-1.9898-62.2571-7.3713-91.7021-19.5777-37.836-15.6848-70.3866-38.0521-95.3056-71.0087-4.3634-5.7709-9.8079-10.9044-15.4268-15.5106-16.4707-13.5029-32.346-27.6208-47.814-42.273-20.7379-19.6442-37.0521-42.6095-52.1901-66.5513-3.1294-4.9492-6.0158-10.1075-8.0192-16.3223Zm-20.9736-63.8009c-1.4544-8.2633-1.955-16.5305-1.3513-24.9368,.5589-7.7833,3.5829-14.1004,9.5359-18.9937,3.76-3.0911,7.6828-5.9888,11.5964-8.8867,12.918-9.5651,32.4185-11.0566,48.7791,.6576,9.1483,6.5502,14.1804,15.0223,15.1685,26.1065,.9208,10.3287-1.2382,20.1326-5.3581,29.4807-6.6831,15.1633-18.1827,26.241-31.6421,35.2871-9.2506,6.2176-19.4231,10.6976-30.388,13.122-.8051-1.1284-1.6201-1.8867-1.9712-2.8197-6.0084-15.9798-11.3996-32.1422-14.3693-49.0169Zm81.585-540.3553c20.7459-7.1622,42.1318-12.4711,63.2323-18.6054,.6699-.1949,1.3406-.3953,2.022-.5425,15.0019-3.2435,30.0243-6.3947,45.0034-9.7395,19.7452-4.4087,39.4935-8.8152,59.1624-13.5477,6.7583-1.6261,13.4129-3.8981,19.8835-6.4598,10.7044-4.238,21.2186-8.9563,31.8176-13.4617,9.9949-4.2488,19.3665-9.6058,28.3751-15.6581,17.4202-11.703,33.6413-24.9239,49.4587-38.6732,11.4045-9.9135,21.1527-21.2408,29.3527-33.9198,17.3965-26.8999,29.3082-56.1852,38.1645-86.8585,5.3224-18.4339,10.8723-36.8115,16.8101-55.0549,3.8887-11.9487,9.079-23.4215,15.8463-34.0823,3.7132-5.8489,7.5826-11.6072,14.4884-16.7027,6.1166,17.1437,13.6677,31.4201,32.7551,34.678,.6866,1.9865,1.4757,3.9047,2.0154,5.8909,3.4003,12.5162,4.8719,25.3192,5.6603,38.2301,1.5379,25.193-.3691,50.2401-3.9511,75.1218-1.8851,13.0935-5.2484,25.9814-8.1411,38.9181-.8758,3.9166-1.9819,7.9133-5.9721,11.4992-.5875-3.5273-.8887-6.2599-1.5131-8.9166-2.0532-8.7393-6.5637-16.0935-12.9661-22.3209-3.0646-2.9807-6.6581-5.061-10.8388-6.0378-7.5932-1.7738-15.0072,1.4613-18.4549,8.45-1.3641,2.7649-2.1892,5.8976-2.7103,8.9565-1.3224,7.7644-.0323,15.3335,2.7996,22.5843,3.4203,8.7572,8.9681,15.6882,17.8363,19.5912,2.0924,.9209,3.995,2.2721,5.9266,3.3915-7.6705,16.8448-17.477,31.8029-28.9151,44.0737-4.996,5.3595-10.1574,10.5646-15.1721,15.9073-1.4164,1.5087-2.8854,3.1057-3.7769,4.9323-.9707,1.988-.3862,4.089,1.1894,5.7795,1.5907,1.7065,3.6203,2.427,5.6518,1.353,2.11-1.1149,4.1063-2.5976,5.8413-4.2467,19.6597-18.6889,35.945-39.8795,47.2741-64.649,1.5072-3.295,3.3272-5.8823,6.5107-7.7978,5.511-3.3156,9.6086-8.1714,12.2522-13.9797,2.8781-6.3245,5.8429-12.718,7.6945-19.3802,5.4354-19.5554,8.7056-39.5623,9.8106-59.8165,1.1111-20.3736,4.5292-40.1659,11.9954-59.2062,5.3476-13.6374,10.3602-27.4111,15.9575-40.944,7.3301-17.723,14.8872-35.3625,24.0846-52.2337,4.8621-8.9184,10.3955-17.3521,17.6829-24.525,4.5094-4.4387,9.3784-8.3662,15.2861-10.8141,1.5564-.6449,3.1847-1.4497,4.6415,.0743,.1873,.4124,.4489,.7248,.45,1.0385,.0043,1.0449-.0301,2.0962-.1464,3.1345-1.8203,16.2295,2.9787,31.0182,9.7,45.4426,3.678,7.8933,9.136,13.0488,18.2886,13.3613,.4802,.0165,.9304,.9217,1.8912,1.9391-.857,7.8521-2.6507,16.0117-4.4612,24.1442-8.5745,38.5144-15.5484,77.3312-22.285,116.1981-2.9237,16.8672-7.0238,33.4731-12.1437,49.8171-.5208,1.664-1.0789,3.3218-1.7266,4.9398-.6474,1.6184-1.3184,3.2467-2.1842,4.7525-.7595,1.3211-.5166,3.6057-3.5208,3.5531-.9241-3.1744-1.7432-6.4754-2.8473-9.6781-2.2675-6.5765-6.3573-11.4961-12.9973-14.1745-13.8063-5.5689-27.4835,2.19-29.6009,16.893-1.8831,13.0777,5.3403,27.1203,17.1607,33.1848,3.3249,1.7054,6.7669,3.1822,10.2863,4.8251-.9557,2.16-1.6136,3.7707-2.3737,5.3322-.9147,1.8798-1.8629,3.7474-2.8881,5.5687-16.2515,28.8688-31.9325,58.0928-52.958,83.9612-2.3995,2.9522-4.3667,6.3156-6.1479,9.6921-1.4235,2.6989-.3667,5.9222,1.8654,7.4544,2.6378,1.8108,6.0814,1.1453,8.2609-1.8156,3.5109-4.7695,6.9395-9.6017,10.3202-14.4647,6.9638-10.0165,14.2324-19.8454,20.7131-30.1672,7.9701-12.6945,15.4213-25.7249,22.7909-38.7828,4.2779-7.5799,8.2451-15.3685,11.8047-23.3088,2.5735-5.7404,4.9351-11.2307,9.9666-15.5539,5.6299-4.8371,8.8137-11.7113,11.4888-18.5297,2.9244-7.4538,5.6822-15.0548,7.5535-22.8227,3.9224-16.2821,7.4507-32.6693,10.7012-49.1005,3.2505-16.4307,5.7685-33.0056,8.9586-49.4491,5.1178-26.3809,10.3991-52.7317,15.8581-79.0439,3.1968-15.4079,7.3576-30.5766,15.3846-44.3022,2.4386-4.1696,5.6446-7.9085,8.6767-11.7029,.983-1.2299,2.3748-2.5858,4.3022-1.2632,1.0259,29.313,3.2062,36.6197,14.7773,49.5535,.0421,.6915,.213,1.4031,.108,2.0716-3.7384,23.7832-7.4684,47.5677-11.2825,71.3387-1.2164,7.5798-2.7548,15.1078-3.9927,22.6846-6.2452,38.231-12.0978,76.5308-18.8217,114.6769-2.6581,15.0807-7.1627,29.8406-10.981,44.7068-.4415,1.7191-1.8763,3.1832-3.458,5.7521-1.3222-3.8273-2.047-6.4895-3.1428-8.9892-3.063-6.9886-7.9997-12.2971-15.0942-15.2318-11.1856-4.6269-20.463,.8646-21.9378,12.8816-.2514,2.0475-.2328,4.1991,.0889,6.2349,1.817,11.4959,7.5507,20.1012,18.641,24.5953,1.8413,.7463,3.7262,1.386,6.2325,2.312-1.3275,4.9192-2.3964,9.2731-3.6896,13.5596-1.2089,4.0069-2.7576,7.911-3.9804,11.9143-5.1506,16.8629-12.9622,32.3267-23.8848,46.2117-8.1957,10.4191-16.2278,20.9667-24.4251,31.3844-6.2393,7.9293-11.6987,16.5306-19.7958,22.8804-2.1224,1.6646-2.5836,4.0972-1.4306,6.6117,1.1246,2.4526,4.4433,3.9687,7.0944,2.9557,1.9026-.7267,3.8396-1.7962,5.283-3.2035,2.9891-2.9146,5.8589-6.0001,8.4269-9.2894,12.6657-16.2228,25.3384-32.443,37.7659-48.8485,8.2642-10.9094,14.6505-22.9137,19.0152-35.9221,4.5452-13.5464,8.9814-27.1293,13.6985-41.4021,8.7366-4.0292,13.1451-12.2545,16.1931-21.3938,1.6535-4.9585,2.9978-10.0306,4.2685-15.1052,7.8091-31.1888,12.9996-62.8718,17.8642-94.6214,3.3294-21.7288,6.9055-43.4202,10.4223-65.12,3.3494-20.6679,6.7599-41.3259,10.1573-61.986,.5659-3.4417,1.1177-6.8902,1.8713-10.2925,.1593-.7195,1.1731-1.2498,2.7834-2.853,.2371,2.785,.5023,4.3326,.4765,5.8753-.0942,5.5727-.7611,11.1799-.3406,16.7077,.8197,10.7754,5.513,19.3514,15.7092,24.2102,1.5298,.7291,2.9938,1.5966,4.7577,2.5449-.1159,4.72,.001,9.2495-.3764,13.7376-1.6654,19.8117-2.8154,39.6976-5.3993,59.3932-3.0853,23.517-7.2426,46.874-13.5394,69.8441-8.5057,31.0277-19.1554,61.2592-31.7141,90.8425-13.1025,30.864-27.7712,60.9299-45.8206,89.2604-30.6437,48.099-70.6393,87.1055-116.9774,119.8406-36.8157,26.0079-77.1692,44.7929-120.276,57.8036-34.7748,10.4961-70.1523,18.4961-105.7275,25.6777-37.637,7.598-74.9926,16.3538-111.7578,27.4613-40.4755,12.228-78.1173,30.034-110.949,57.1682-28.8006,23.8025-53.0466,51.4132-71.0357,84.3156-13.9657,25.5436-23.842,52.7049-32.1801,80.5065-3.263,10.8805-4.4918,21.934-3.0263,33.0946,1.3134,10.0044,3.1206,20.0049,5.6092,29.7781,2.6638,10.4613,6.4177,20.6429,9.5996,30.9766,.5618,1.8246,.6517,3.7945,1.0823,6.4573-6.2818,.3588-11.8236,1.0566-17.3459,.9252-25.3688-.604-48.5252-8.79-70.5426-20.8882-34.3717-18.887-63.6231-44.0657-89.2594-73.4452-22.9855-26.3412-43.3352-54.7026-61.6213-84.5182-.5227-.8524-.7385-1.8931-1.1473-2.9785,.5994-.8709,1.0723-1.8074,1.7671-2.5303,10.9348-11.375,19.9779-24.1804,28.4929-37.402,13.611-21.1341,26.2658-42.8328,37.3139-65.4027,14.872-30.3819,29.2607-61.0005,43.8881-91.5026,19.1849-40.0053,41.1727-78.4153,65.7728-115.3337,12.4873-18.7406,27.189-35.3844,45.6428-48.5275,4.5458-3.2374,9.0216-6.6081,13.2694-10.2232,24.3483-20.7222,52.887-33.7845,82.6686-44.0661Zm565.9854-74.3113c-3.2861-4.6965-5.0405-9.7279-2.2113-16.2077,11.6041,3.3905,14.5826,8.3932,13.5128,21.7193-5.1036,.9082-8.5941-1.6423-11.3016-5.5115Zm-42.481-38.9019c-7.0668,.5074-11.178-2.4978-14.5353-6.6769-3.6069-4.4895-5.3038-9.6755-4.596-15.5097,.7665-6.3165,4.4021-9.1519,10.7204-8.3784,4.2399,.5189,6.9334,2.9999,8.3758,6.8432,2.8957,7.7166,2.8526,15.4265,.035,23.7217Zm-102.892-13.095c-2.2201-.4875-3.9435-.7052-5.5452-1.2687-1.2782-.4498-2.4834-1.2175-3.5924-2.0218-7.8332-5.6827-12.7885-20.6546-9.9824-30.0138,1.5648-5.2194,5.9492-6.4878,10.4313-3.0177,10.5928,8.2014,13.9532,21.377,8.6886,36.322ZM358.8058,381.815c-.3541,.1147-.7242,.3748-1.0118,.3037-1.3514-.3349-2.6722-.7914-4.0188-1.1497-16.0171-4.2635-32.1955-5.8064-48.7-3.3191-19.1768,2.8899-37.1323,9.1048-54.3231,18.1081-13.5833,7.114-27.5462,13.5578-41.6172,19.6616-6.653,2.8859-13.8533,4.7776-20.9881,6.2107-7.2616,1.4585-14.6237,1.0284-21.2428-3.1514-1.1409-.7203-2.5326-1.2237-1.5778-3.2212,.8147-.2758,1.7577-.7715,2.749-.9035,12.6122-1.6801,24.2731-6.2223,35.6618-11.6533,13.5972-6.4843,26.273-14.4667,38.4482-23.2944,3.6707-2.6615,7.3812-5.28,11.1921-7.734,10.1929-6.5634,21.3608-10.2696,33.497-10.6659,5.5637-.1814,11.1761-.1989,16.7109,.3119,18.6634,1.7223,36.2753,6.8961,52.3234,16.8327,1.4,.8669,3.2431,1.4095,2.8973,3.6638Zm-27.5407,8.1681c1.0908,15.2088-9.0072,28.845-23.6474,31.9328-17.3404,3.6574-33.1892-4.7218-39.3238-20.7903,17.5779-9.7851,48.139-15.1926,62.9712-11.1424Zm48.6255,14.2548c-1.6419,2.2578-2.6701,4.0055-4.0127,5.4637-8.6037,9.3446-18.5235,16.8284-30.2868,21.8836-14.7886,6.355-29.6862,12.1455-45.9927,13.1884-16.4821,1.054-32.7505-.4352-48.8062-4.1199-9.9331-2.2796-19.1742-6.3539-27.6569-12.0345-1.3347-.8938-2.3738-2.2289-4.1022-3.892,12.5821-6.0212,24.4542-11.7024,37.0164-17.7139,3.0486,4.1769,5.3306,7.69,7.9913,10.8882,19.5286,23.4722,60.2649,23.9941,75.765-8.62,1.7722-3.729,2.4779-7.9578,3.7707-11.9247,.6167-1.8916,1.4513-3.7119,2.4438-6.2112,11.6679,3.5818,22.9506,6.6352,33.8703,13.0924Zm-215.767-122.5287c2.9813-3.8236,6.4532-7.3507,10.1111-10.547,26.2185-22.9079,57.2264-34.1493,91.562-36.8158,6.9141-.5369,14.005-.4662,20.8773,.405,36.5697,4.6357,65.6798,22.2684,87.4738,51.8115,18.0572,24.477,30.0464,51.7743,36.8689,81.4365,6.7005,29.1325,4.739,57.5421-6.4767,85.2036-6.8121,16.8007-14.252,33.3458-21.1758,50.1025-4.2593,10.3081-8.2339,20.7421-12.0331,31.2293-2.1619,5.9681-2.8895,12.2632-1.5914,18.5701,3.0661,14.8946,10.1685,27.4414,22.4231,36.6713,14.8429,11.1789,29.9963,10.1573,43.7972,1.1241,2.8996-1.8975,5.6543-4.0158,8.2317-5.8577,8.7257,.4851,15.8784,3.871,22.4658,8.7219,3.5767,2.634,5.7093,6.1679,6.1377,10.5334,1.0138,10.3376-1.3106,19.9092-6.5094,28.7211-1.5665,.051-2.645,.3127-3.605,.0824-9.5005-2.2807-17.828,.4234-25.8256,5.4912-9.4929,6.0153-18.156,12.9616-25.8448,21.156-13.0391,13.8967-22.4826,30.1123-30.7106,47.1456-7.1852,14.8743-12.3572,30.3676-14.6115,46.7586-.4221,3.0671-.9552,6.4337-.1497,9.3006,3.7831,13.4668,11.3088,23.8836,25.248,28.4299,11.662,3.8033,23.555,6.5845,35.8685,6.8348,9.7489,.1981,19.5118,.1421,29.2588-.141,7.4519-.2166,13.7642,2.1047,18.8439,7.4346,2.8698,3.0109,5.6812,6.1962,7.8829,9.7024,6.3883,10.1743,10.1609,21.3928,12.0567,33.2231,.247,1.5403-.3971,3.223-.6059,4.6827-1.3004,.1726-1.9986,.4145-2.6517,.3255-2.4193-.3294-4.8372-.7003-7.2319-1.1753-28.5516-5.6622-56.1932-1.9481-83.311,7.8356-14.233,5.135-25.4765,14.2692-35.1098,25.5918-5.3526,6.2914-8.115,13.7441-8.77,21.9875-1.959,24.659,17.2503,47.3702,42.2156,49.8573,10.1465,1.0111,20.2671,.4689,30.1917-1.6607,22.3722-4.8006,42.3655-13.9966,57.0945-32.3698,10.0295-12.5108,16.0374-26.8703,19.4705-42.4106,.5958-2.6972,1.1855-5.3959,1.9795-9.0119,1.8042,.3962,2.8714,.4349,3.7592,.8547,14.3101,6.7678,25.409,17.004,33.1843,30.8248,4.9248,8.7539,7.1741,18.2074,6.623,28.1553-.838,15.1172-6.2129,28.4712-16.4051,39.8489-11.4024,12.7279-25.1989,22.2405-40.863,28.5372-13.8706,5.5758-28.3272,9.7212-42.5996,14.2641-11.9575,3.806-24.0166,7.294-36.0454,10.8722-1.9765,.5876-4.1208,1.532-6.0336,1.2536-8.9655-1.3031-18.3436-1.7056-26.7126-4.777-18.626-6.8358-36.8633-14.7891-55.0123-22.8432-11.2068-4.9734-20.6365-12.9363-30.4903-20.147-18.6393-13.6398-35.9659-28.6352-51.0862-46.2034-23.2925-27.0634-41.3418-56.9928-51.3855-91.4422-3.4168-11.7187-6.7134-23.4767-9.803-35.2857-13.0658-49.9414-26.0254-99.9108-39.0398-149.8657-3.9602-15.2006-7.5348-30.4565-8.8821-46.1744-2.8148-32.8426-1.9314-65.4533,4.3661-97.9276,5.243-27.0339,11.5325-53.9452,12.3192-81.672,.0349-1.2266,.9119-2.4294,1.3965-3.6425q22.8504,8.9511,49.3627,3.9477c1.2215,.774,2.7577,1.5917,4.1212,2.635,15.3314,11.731,32.6592,18.5345,51.7255,21.1137,3.1113,.4209,6.1836,1.1651,9.3016,1.4973,19.2417,2.049,38.3967,1.8765,56.9241-4.3844,9.8925-3.3428,19.5432-7.4873,29.0869-11.7537,12.6694-5.6641,22.7417-14.8358,31.6733-25.2452,2.4603-2.8672,4.5593-6.2346,6.0116-9.7117,.9987-2.392,1.1046-5.4458,.7091-8.0679-.722-4.7867-2.2178-9.4508-3.205-14.2046-4.1165-19.8206-14.7013-35.2387-31.6774-46.15-4.9652-3.1915-10.4388-5.5842-15.6223-8.446-4.2636-2.3538-8.5657-4.6776-12.5972-7.3912-1.5334-1.0319-2.3593-3.1142-4.4627-6.0512,4.1955,1.3939,6.774,2.2523,9.3538,3.1071,6.1353,2.0334,12.3732,2.1638,18.5754,.5646,11.896-3.0675,16.1983-14.1589,9.51-24.4272-1.1243-1.7258-2.5693-3.3347-4.1528-4.6531-6.6135-5.5064-14.2275-8.7755-22.8447-9.4119-8.1652-.6031-15.1225,1.9113-20.3891,8.4302-1.4838,1.8364-3.0053,3.6424-4.6001,5.5722-3.0473-.9693-5.7246-1.7044-8.3189-2.6643-20.2475-7.4925-41.0359-10.6469-62.6674-9.0242-17.8692,1.3402-35.1797,4.9733-52.2177,10.3031-7.653,2.3938-15.3505,4.6614-23.0981,6.7237-1.8065,.481-3.8976-.1069-5.8612-.2031-2.0019-7.0536,.5383-12.3869,4.2244-17.115Zm163.8862,12.0714c4.2682-3.0729,9.2235-3.1644,13.8315-1.2248,5.5135,2.3209,12.0763,3.8808,13.162,11.4275-8.4047,5.1908-13.8784,4.3754-31.0718-4.9623,1.6541-2.1853,2.5558-4.1442,4.0782-5.2404Z"/></svg>